<svg xmlns="http://www.w3.org/2000/svg" viewBox="0 0 1536 446"><path d="M598 2.3c-3.6 1.3-8.1 3.2-10 4.2-4.9 2.6-19.1 3.2-29.5 1.2-14.6-2.8-22.3-3.1-29.5-1.2-7.5 2.1-14.3 5.3-21.2 10-6.6 4.6-10.7 5.1-20.4 2.5-11.4-3.1-30.9-3.9-38.9-1.5-9.3 2.6-21.3 8.7-29 14.5-9.9 7.5-11.4 8-26.2 8-25.2 0-32 2.5-46.1 16.7-10.1 10-11.9 11.2-36.3 22.4l-12.7 5.8-7.8-2.5c-7.4-2.4-9-2.5-25.4-2.2-19.6.3-20.9.7-27.5 7.7-2.1 2.2-5.5 6.8-7.5 10.3l-3.7 6.3-5.2-.1c-4.7-.2-5.6-.6-10.1-4.8-6-5.6-10-7.4-17.8-8.2-10.1-1-30.8 5.2-35.8 10.7-1.3 1.5-3.1 1.9-8.1 1.9H143V93.6c0-8.2-.3-10.8-1.6-12-.8-.9-2.1-1.6-2.7-1.6-2.4 0-13.5 6-25.2 13.5-22.6 14.6-35 22.2-37.4 23-1.3.4-3.9 1.6-5.8 2.8-2 1.1-7.4 3.3-12.1 4.9-27.5 9.3-37.2 19.3-49.7 51.2-10.4 26.6-10.9 36.9-2.2 50 3.3 4.9 3.8 5.2 11.8 7.6 7.2 2.2 10.3 2.5 22.4 2.5 17.5-.1 30.6-2.6 53-10 21.5-7.2 20.5-6.9 52.6-12 36.1-5.8 35-5.7 39.7-1.2 5.8 5.6 17.7 13.3 22.7 14.7 3.9 1.1 4.8 1 7.1-.5 1.4-.9 3.7-4.2 5.1-7.2l2.6-5.6 7.8.7c10.3.8 26 4.9 31.5 8.1 2.5 1.5 10.3 9.1 18.1 17.8 7.6 8.4 17.9 19.2 22.9 24.2 7.1 7 10.3 11.1 14.4 18.5 8.6 15.4 14.8 28.7 16 34.3 1.2 5.2 1.1 5.5-6.8 29.2-10.2 30.3-19.2 59.1-19.2 61 0 2.6-11.9 14.3-15.8 15.6-7.2 2.3-12.6 7.7-13.8 13.8l-.6 3.1h5.3c4.7 0 5.6.3 6.4 2.2 1.2 2.6 2.5 2.7 19.3.7 10-1.2 10.3-1.1 12.5.9 3 2.8 5.4 2.8 12.7-.3 3.3-1.4 7.9-2.5 10.3-2.5 5.2 0 10.3-1.6 11.1-3.5.2-.7.1-5.5-.4-10.7-1.8-18.1-1.5-20.1 3.6-29.7 6.6-12.1 11.3-18.8 21.8-30.8 11.8-13.5 16-19.3 20.1-27.3 6.6-13 7.8-21.4 5-34.5-.8-3.9-1.5-9.4-1.5-12.4 0-5 .1-5.3 2.3-4.8 1.2.4 13.2 3.1 26.7 6.1 29.9 6.7 49.6 10.2 65.5 11.6 18.4 1.6 59.7 1.4 75-.5 46.9-5.6 62.3-7.8 98-13.8 41.9-7.1 66.4-10.9 68-10.5 1.1.2 2.4 2.3 3.4 5.8 1 3 3.5 8.9 5.6 13 4.2 8 12.7 17 35.2 37.7 14.3 13.2 19.8 20.4 21.3 28.1.6 3.1 2 10.2 3.2 15.7 4.2 19.6 3.9 23.1-3.4 31-6.6 7.2-11.8 10.2-19.9 11.4-11.1 1.5-21.9 8.2-21.9 13.6 0 2.5.1 2.6 4.8 1.9 4.8-.6 4.9-.6 5.8 2.7l1 3.4 22.9-.1c23.8-.1 42.6-1.6 47.9-3.8 3.6-1.5 7-5.1 6.3-6.4-.3-.4-.7-9.1-.8-19.3-.2-17 0-19.3 2.5-30.4 2.2-9.5 2.7-13.6 2.3-19.6-.5-7.5-1-9.1-10.5-35.4-3.6-9.9-3.6-10.1-3.8-27.5-.2-14.2-.7-19.6-2.7-28.8l-2.4-11.2 5.6-3.2c13.1-7.4 30.1-19.9 47-34.6 8-7 23.4-17.3 33.9-22.8 8.7-4.5 17.4-6.2 35.7-7 17.8-.7 27.9.3 72.5 7.6 78.3 12.6 113.1 16.6 196 22.5 27.1 1.9 50.6 2.8 99.5 3.7l64 1.1 7 3.5c14.9 7.4 23.1 9.3 39.5 9.3 22.9 0 38.4-2.8 55.6-10.2 5.4-2.3 13.5-4.8 17.9-5.5 9.6-1.7 15.1-4.2 20.4-9.4 5.1-5 6-8.3 3.4-11.8-1.8-2.5-14.2-9.5-23.8-13.5-2.2-.9-6.9-3.4-10.3-5.6-6.9-4.3-18.4-9-29.7-12.2-19.1-5.3-57.4.2-78.7 11.3-10.2 5.3-17.6 6.2-47.6 5.3-27-.7-32-1.4-38.2-5.5-2.5-1.6-6.5-3.9-8.8-5.1l-4.4-2.1-8.5 2.7c-9 2.9-10.2 2.9-23.5-.1-4.1-1-9-3-12.7-5.4l-5.9-3.8-7.1 1.8c-5.9 1.6-8.5 1.8-15.1 1-11.6-1.3-15.4-2.6-20.4-6.9l-4.5-3.9-5.7 1.5c-6.1 1.6-9.2 1.3-21.7-1.8-12-3-15.3-4.6-16.7-8-.7-1.6-2.2-3.5-3.4-4.1-1.1-.6-8.4-1.4-16.1-1.8-13.2-.7-14.7-1-26.4-5.2l-12.4-4.5-2.6-7.9c-2-6-3.1-8-4.6-8.3-1.1-.2-6.4.7-11.7 1.9l-9.7 2.3-15.5-7.3-15.5-7.4-4.2-9.4c-2.3-5.1-4.6-9.5-5-9.8-.5-.3-6.2.3-12.6 1.2l-11.8 1.7-8.4-4.4-8.5-4.4-3.2-8.5c-1.8-4.7-3.5-8.9-3.6-9.3-.2-.5-5.9.5-12.6 2.3l-12.3 3.2-12.5-5.3-12.5-5.2-3.5-7.1c-5.4-10.7-4.9-10.5-15-7.2-4.8 1.5-10.1 2.8-11.9 2.8s-9.5-1.8-17.1-4.1C837.6 37.2 759.7 19.9 727 15.5c-17.7-2.3-21.8-3.4-31.3-7.7-8.5-3.9-9.1-4-17-3.5-4.5.2-12.2 1-17.2 1.7-12.3 1.7-24.2.8-33.5-2.5-11-3.9-21.5-4.3-30-1.2"/></svg>