<?xml version="1.0" standalone="no"?>
<!DOCTYPE svg PUBLIC "-//W3C//DTD SVG 20010904//EN"
 "http://www.w3.org/TR/2001/REC-SVG-20010904/DTD/svg10.dtd">
<svg version="1.0" xmlns="http://www.w3.org/2000/svg"
 width="1023.000000pt" height="546.000000pt" viewBox="0 0 1023.000000 546.000000"
 preserveAspectRatio="xMidYMid meet">
<metadata>
Created by potrace 1.16, written by Peter Selinger 2001-2019
</metadata>
<g transform="translate(0.000000,546.000000) scale(0.100000,-0.100000)"
fill="#000000" stroke="none">
<path d="M845 5439 c-5 -6 -26 -8 -60 -4 -93 12 -138 -20 -422 -303 -162 -160
-242 -246 -234 -251 8 -5 -6 -20 -41 -43 -62 -41 -99 -98 -82 -126 21 -33 79
-44 173 -31 47 6 134 13 193 16 105 5 109 4 160 -25 29 -16 67 -33 84 -37 20
-4 34 -14 37 -26 3 -11 -7 -63 -23 -117 -24 -87 -28 -118 -33 -307 -7 -271 0
-339 45 -435 20 -42 32 -78 27 -81 -14 -8 16 -144 56 -257 19 -52 59 -136 88
-186 30 -50 70 -123 90 -162 37 -75 118 -212 149 -254 10 -14 44 -59 75 -100
61 -83 416 -436 448 -446 11 -4 43 -26 70 -49 100 -85 365 -245 487 -294 63
-25 78 -40 99 -91 17 -45 80 -139 110 -166 13 -12 41 -29 61 -39 29 -13 40
-26 48 -54 5 -20 18 -46 27 -56 10 -11 31 -37 46 -58 16 -20 47 -47 70 -58 57
-29 77 -48 77 -75 0 -25 53 -84 77 -84 8 0 68 -54 132 -119 67 -67 130 -123
144 -126 15 -4 43 -27 63 -51 l36 -45 -22 -110 c-29 -151 -45 -199 -79 -246
-53 -74 -132 -77 -228 -10 -42 30 -42 30 -94 15 -63 -17 -73 -33 -23 -33 23 0
39 -6 44 -15 4 -8 12 -26 19 -38 7 -13 10 -26 7 -29 -3 -3 -44 -10 -91 -16
-81 -10 -88 -9 -126 13 -36 19 -51 22 -115 18 -40 -3 -80 -10 -88 -17 -20 -16
-48 -79 -43 -94 3 -7 9 0 15 14 14 34 49 59 84 59 19 0 36 -12 63 -44 28 -34
45 -46 76 -51 36 -6 39 -9 39 -38 l1 -32 14 34 c9 20 20 31 28 28 8 -3 64 -8
126 -12 61 -4 114 -12 117 -16 3 -5 23 -6 44 -3 33 5 41 3 45 -12 3 -11 12
-31 20 -46 12 -24 11 -27 -9 -32 -13 -3 -54 -8 -92 -12 -60 -6 -76 -3 -112 15
-42 22 -87 25 -157 13 -45 -8 -85 -56 -85 -101 1 -26 1 -25 14 5 17 39 52 64
87 64 27 0 45 -15 64 -54 6 -12 30 -28 60 -38 42 -13 51 -20 54 -45 l4 -28 6
25 c7 24 10 25 76 24 331 -6 579 -3 593 8 10 9 13 24 8 58 -9 69 -9 71 -8 134
l2 58 23 -16 c32 -23 87 -51 65 -33 -10 8 -21 29 -24 48 -4 19 -12 41 -19 49
-28 32 -28 101 0 190 15 47 31 89 36 95 5 5 9 26 9 47 0 21 3 38 6 38 3 0 17
-14 31 -30 46 -55 110 -35 193 61 46 54 56 88 69 243 1 4 10 6 21 3 15 -4 21
1 24 16 16 80 26 231 26 403 0 177 -2 207 -21 263 -12 35 -17 66 -13 70 13 12
126 41 158 41 15 0 39 -6 55 -14 15 -8 108 -40 207 -71 139 -45 198 -58 264
-62 65 -4 88 -2 96 8 21 26 -5 77 -72 145 -36 36 -57 63 -47 60 10 -3 133 -36
273 -72 202 -53 277 -68 360 -73 142 -9 174 -3 178 31 3 21 -11 41 -65 99 -54
57 -63 71 -43 65 166 -47 480 -88 546 -72 35 9 30 40 -11 72 -22 16 -35 35
-35 49 0 21 6 22 87 29 52 4 97 13 111 22 l24 16 -28 19 c-16 10 -36 23 -44
28 -8 6 -50 26 -93 45 -77 35 -102 60 -76 77 24 15 76 10 156 -17 151 -49 353
-76 353 -46 0 6 7 12 15 12 8 0 15 -4 15 -8 0 -15 154 -110 188 -116 32 -5 32
-5 32 35 0 42 21 52 29 13 2 -10 6 -21 10 -24 3 -3 11 -14 17 -25 15 -28 101
-69 143 -68 23 1 55 -9 89 -29 58 -33 70 -32 51 4 -9 17 -2 14 29 -14 23 -21
44 -38 47 -38 8 0 -13 38 -25 45 -6 3 -10 11 -10 18 0 6 24 -12 53 -41 45 -44
63 -55 117 -68 36 -9 69 -20 75 -25 5 -5 15 -9 22 -9 9 0 5 12 -12 37 -44 65
-27 59 48 -19 39 -41 61 -61 47 -44 -14 17 -36 45 -50 61 -13 17 2 5 35 -25
82 -76 119 -100 154 -100 16 0 32 -4 35 -9 3 -4 27 -11 53 -14 63 -8 90 -14
106 -23 6 -4 -17 20 -52 54 -35 34 -62 64 -60 67 3 2 43 -29 90 -69 99 -86
150 -116 196 -116 38 0 41 9 12 36 -12 10 -35 37 -52 59 -37 47 -14 32 58 -39
68 -66 107 -95 144 -106 31 -9 38 -1 31 35 -1 6 8 0 20 -12 11 -13 26 -23 31
-23 6 0 22 -9 36 -20 14 -11 36 -20 49 -20 27 0 28 3 14 30 -7 13 -7 21 0 25
5 3 10 2 10 -4 0 -6 25 -27 56 -46 64 -41 99 -43 99 -6 0 13 6 26 12 28 7 3
13 -1 13 -9 0 -13 13 -23 77 -59 41 -23 83 -25 83 -4 0 8 -4 15 -10 15 -5 0
-10 7 -10 16 0 13 5 12 29 -5 16 -12 34 -21 40 -21 6 0 11 -4 11 -8 0 -8 86
-42 108 -42 6 0 12 9 12 20 0 11 5 20 10 20 6 0 10 -6 10 -14 0 -21 40 -42 91
-49 45 -6 46 -6 41 18 -5 27 12 35 21 10 7 -16 126 -79 134 -71 3 3 0 13 -8
23 -16 19 -20 20 69 -19 52 -22 54 -22 67 -5 13 18 13 18 19 -1 5 -14 13 -17
36 -14 l30 4 -20 26 c-33 41 -15 37 55 -12 41 -30 80 -49 103 -52 28 -3 32 -2
17 5 -11 5 -28 12 -37 15 -21 6 -24 36 -4 36 8 0 43 -16 77 -36 64 -36 159
-58 159 -36 0 6 -17 14 -37 18 -33 6 -98 43 -90 50 1 2 43 -10 92 -27 52 -17
111 -29 140 -29 l50 0 -25 20 c-14 11 -41 25 -60 31 -38 13 -62 29 -41 29 13
0 84 -27 158 -60 41 -19 143 -38 143 -27 0 9 -106 67 -122 67 -9 0 -21 7 -28
15 -12 14 -8 15 31 9 24 -3 62 -17 84 -30 99 -57 121 -66 173 -71 40 -5 53 -3
48 5 -4 7 -14 12 -23 12 -24 0 -84 40 -77 52 8 13 42 4 118 -32 35 -17 78 -30
97 -29 l34 1 -42 11 c-23 7 -45 16 -50 21 -4 5 1 6 12 2 11 -3 49 -10 83 -14
49 -7 65 -6 69 4 3 7 2 18 -2 23 -9 15 -90 49 -133 56 -20 4 -59 15 -87 25
-97 37 -317 100 -348 100 -18 1 -57 9 -87 20 -30 11 -138 36 -239 55 -176 35
-321 67 -441 100 -30 9 -84 20 -118 25 -35 6 -89 19 -120 30 -32 10 -103 28
-159 40 -56 11 -150 36 -210 55 -59 18 -126 37 -148 41 -22 4 -74 19 -115 34
-41 15 -102 33 -135 40 -33 6 -73 18 -90 25 -72 32 -562 197 -737 249 -48 15
-90 31 -93 36 -3 6 -15 10 -26 10 -11 0 -80 24 -152 54 -73 29 -181 70 -242
91 -60 21 -166 59 -235 86 -69 26 -170 61 -225 78 -55 17 -127 47 -160 67 -33
20 -67 37 -75 39 -8 2 -86 37 -173 79 -87 43 -187 84 -224 93 -46 12 -67 22
-71 35 -6 24 -158 115 -241 143 -185 63 -305 117 -496 220 -265 143 -406 206
-762 339 -47 18 -90 44 -129 77 -31 28 -74 61 -94 74 -54 34 -365 193 -435
222 -33 13 -95 42 -137 64 -42 21 -105 49 -140 63 -35 13 -102 40 -149 59 -99
41 -462 135 -647 167 -35 6 -75 15 -89 21 -35 13 -282 41 -304 34 -17 -6 -19
-1 -19 42 -3 269 -44 479 -113 577 -36 52 -153 189 -188 222 -50 45 -167 128
-217 153 -42 21 -269 71 -324 71 -15 0 -30 -5 -33 -11z m1495 -3547 c0 -7 -4
-10 -10 -7 -5 3 -10 16 -10 28 0 18 2 19 10 7 5 -8 10 -21 10 -28z m1046
-1024 c-8 -13 -20 -54 -26 -93 -15 -98 -32 -179 -40 -188 -3 -4 -16 2 -28 13
-35 33 -31 124 10 233 10 26 53 54 86 56 9 1 9 -4 -2 -21z m-102 -342 l29 -24
-18 -65 c-33 -122 -47 -117 -53 18 -3 52 0 95 4 95 5 -1 22 -11 38 -24z m-64
-247 c0 -18 -71 -41 -108 -34 -42 8 -82 26 -82 37 0 4 43 8 95 8 60 0 95 -4
95 -11z"/>
</g>
</svg>
