<svg xmlns="http://www.w3.org/2000/svg" viewBox="0 0 1536 656"><path d="M337.5.7c-6.3 1.4-8.5 2.5-8.5 4.5 0 1.1 2.5 6.3 5.5 11.6 3.1 5.4 6.4 12.5 7.5 15.9 4.8 15.6 5.1 36.2.7 54.3-3.6 14.6-9.3 33.8-11.4 38.5-6.2 13.7-20.5 32.5-27.4 36.1-2.3 1.2-6.4 1.3-23.1.8-23.8-.7-27.9-1.4-56-10-27.7-8.5-39.8-10.1-61.8-8.5-8.5.7-20.9 2.3-27.6 3.6-11.8 2.4-46.1 11.3-51.7 13.4-1.6.6-12.1 3.4-23.5 6.2-20.3 5-21.1 5.2-40.1 5.8-14.2.4-19.5.9-19.9 1.9-.4 1.4 9.3 6 20.6 9.6 20.1 6.3 34.1 7.1 59.1 3.2 26.1-4.1 35-4.8 55.4-4.4 18.8.5 35.2 2.8 33 4.8-.4.4-7.1 1.9-14.8 3.4-7.7 1.4-23.4 4.3-35 6.5-50.3 9.5-76.9 11-101.3 6-12.3-2.6-14.3-1.9-8.7 3.2 7.3 6.7 14.9 10.9 27.1 14.9 32.5 10.6 61.7 12 130.9 6.5 23.9-1.9 33.6-1.6 45.9 1.6 10.2 2.7 9.8 1.5 6.1 19.3-5.3 25.8-13 53.2-16.6 59.1-9.2 15.3-24.6 30.4-38.3 37.6-11.9 6.2-19.6 11.1-19.6 12.4 0 4.6 10.9 11.6 21 13.6 9.9 1.8 9.8 1.7 8.9 9.7-.4 3.8-2.4 13.6-4.3 21.9-4.6 19.1-5.3 27.6-3.2 36.7 3.6 15.1 16 31.9 27.9 37.5 8.9 4.2 16.2 5.5 22.3 4s12.9-4.6 14.6-6.6c1.3-1.6 1.1-1.8-5.7-6.6-5-3.5-3.3-4.2 9.5-3.9 14.9.4 21.3-1.3 34.8-9.2 17.8-10.6 22.2-15 42.9-42.6 18.6-24.8 29.7-35.8 45.1-44.7 4.6-2.6 10-5.8 12-7 4.6-2.7 20.9-8.2 36.7-12.3 19.4-5.1 44.6-5.2 64.5-.3 12.6 3 26 10.6 29.1 16.5.6 1.1 1.7 7.6 2.4 14.5 1.1 9.7 2.4 15.4 6 26 7.3 21.6 10.8 27.5 23.8 41.1 11.2 11.7 11.2 11.8 21.5 31.9l10.3 20.2-8 15.3c-7.5 14.5-16.9 35.9-18.5 42.2-.4 1.6-2.1 4.9-3.7 7.3-4.8 7-8.4 15.8-12.3 30.2-4.5 16.6-7.5 22.8-14.1 29-5.5 5.3-10.2 7.9-20.3 11.7-3.5 1.4-8.2 3.4-10.3 4.5-3.6 1.8-4 2.4-3.7 5.2.3 3.1.4 3.2 5.8 3.5 3 .2 6 .8 6.7 1.4s3.1 1 5.3.8c5.6-.3 10.4-.3 18.5 0 4.7.1 9-.5 13.2-1.8 3.4-1.1 7.3-1.7 8.7-1.5 3.8.8 11.4-1.4 15.2-4.3 3.2-2.5 3.3-2.5 4.4-.5 1.7 3.3 4.6 4.4 8.4 3.1 6.4-2.1 7.7-4.5 9.2-18.2 1.6-14.9 6.4-30.9 12.2-40.5 5.9-10 19.8-26 27.2-31.4 3.6-2.7 9.2-7 12.5-9.6s11.2-8.7 17.5-13.4c6.3-4.8 12.6-9.8 13.9-11.3 1.4-1.4 2.8-2.6 3.2-2.6s1.1 2.1 1.5 4.7c.8 5.3-.7 19.1-3.7 34.6-1.3 6.7-2.3 18-3 32.7-1.4 31.7-2.2 33.8-19.6 48.3-10.3 8.7-12.8 11.6-11.8 14.6.9 2.8 3.1 3.3 7.2 1.6 1.9-.8 5.7-1.5 8.4-1.5 6.4 0 22.4-5.8 31.8-11.5 4-2.5 7.9-4.5 8.5-4.5 2.4 0 9.2-4.3 12.3-7.7 3-3.3 3.3-3.4 5.5-1.9 9.3 6.6 17.6-6 14.8-22.7-2.1-12.3.4-28 9-56.8 4.6-15.4 5-18.2 3.4-25.2-3.7-16.4-5.5-28.2-6.1-39.2l-.6-12h32.9c28.5 0 36.6-.4 60.5-2.8 15.2-1.5 31.5-3.4 36.4-4.2 10.2-1.6 12.6-1.1 25.9 5.8 9.1 4.7 17.9 12.5 27.3 24.2 8.6 10.6 10.7 14.7 10 20.2-1.2 10.8-17.7 36.5-36.2 56.5-8.9 9.6-11.4 13.1-16.4 22.8-3.3 6.3-7 12.5-8.3 13.6-1.2 1.2-6.5 4.2-11.7 6.8-11.1 5.5-17.3 10.3-21.2 16.5-4.9 7.6-4.5 8.1 7 8.1 9.3 0 10 .1 10.6 2.1.7 2 1.2 2.1 6.2 1.5 3-.3 6.8-1.3 8.3-2.1 2.7-1.4 3-1.4 4 .5.6 1.1 1.6 2 2.3 2 1.8 0 24.6-10 29.2-12.8 2.2-1.4 5.6-3.7 7.6-5.3s6.5-3.5 10.2-4.5c8.6-2.1 11.7-5.4 11.7-12.2.1-11.4 3.6-16.9 26.6-41.2 20.5-21.8 31.3-34 34-38.6 3.6-6.1 4.5-12.8 2.9-20.5-.7-3.5-1.2-6.5-1.1-6.5 0-.1 10.2 4.4 22.6 10 42.9 19.4 53.8 28 66.4 52.5 5 9.8 8.5 20.2 12.1 36.4 1.4 6.2 3 12.4 3.6 13.9.9 2.1.7 3.1-.7 5.3-2.7 4.1-9.4 8.2-16.5 10-12.3 3.2-21.7 10.5-23.3 18.1-.9 3.9.4 4.4 12.9 4.4 8 0 9.3.2 10.9 2.1s2.5 2.1 8.5 1.6c7.6-.6 18.9-4.6 23.8-8.3 3.1-2.3 3.3-2.4 3.3-.6 0 1.1.6 2.5 1.4 3.2 1.9 1.5 8.6-1.3 13.7-5.7 1.8-1.7 5.2-4 7.5-5.1 2.2-1.1 4.5-2.6 5.1-3.4 2.4-3.1 3.5-9.1 3.8-20.4.3-11 .6-12.8 3.5-19.5 5.3-12.6 4.9-18.6-1.5-23.7-3.6-2.9-6.9-13.2-11.1-35.2-2-10.2-4.2-19.9-4.9-21.5-.7-1.7-5.9-7.4-11.6-12.5-15.4-14.1-17-16-24.9-30.4-13.6-24.4-20.3-34.9-26.1-41.3-3.3-3.4-5.9-6.7-5.9-7.2 0-1.7 11.3-11.2 21-17.6 16-10.5 34.1-18.9 47.8-22.1 13.1-3.1 43-1 61.2 4.2 9.3 2.7 29.4 11.7 68.8 30.8 42.4 20.7 53.8 25.8 73.2 32.9 23.3 8.5 30.8 10.6 56 15.7 30.2 6.1 37.3 6.9 120.5 12.4 18.3 1.3 22.3 1.8 31 4.5 5.4 1.8 10.5 2.9 11.2 2.7 2.3-.9 1.4-3.3-3-7.3-9.6-8.9-26.5-16.4-67.2-30.1-34-11.4-100-37.3-116.2-45.6-18.7-9.6-45.4-28.3-62.3-43.6-5.4-4.9-14.7-14.4-20.6-21.2-6-6.7-15.9-17.6-22-24.2-16.8-18.2-28.9-32.3-44.6-51.6-7.8-9.6-16.6-20.4-19.7-24-3-3.6-8.8-11.7-13-18-12.2-18.9-20.7-29.5-34.5-43.5-10.9-11-15.9-15.1-29.6-24.4-9.1-6.2-25.5-17.5-36.5-25.1-33.1-22.8-73-46.1-105.5-61.4-28-13.2-37.7-15.8-75.5-20.1-38.4-4.5-82.4-4.4-109 0-28 4.7-53.5 10.2-68.8 14.9-6.2 1.9-15.9 4.4-21.7 5.6s-16.1 3.9-23 6.1c-19.4 6-65.4 16.6-98 22.5-38.9 7-53.5 9.4-74 12.4-8.5 1.2-22.9 3.5-32 5.2s-17.7 3.3-19.1 3.5c-2.4.5-3-.2-7.6-9.4-5-9.7-5-9.9-5.6-21.3-.8-15.5-2.6-20.8-9.9-28.6-4.5-4.7-6.6-8.2-9.3-14.7-5.8-14.5-10.4-20.1-20.8-25.3-2.9-1.5-7.7-4.6-10.7-6.9C363.2 2.3 348.7-1.8 337.5.7m-85.7 413c-.5 10.8-3.1 16.3-11.7 25.6-5.1 5.4-16.1 13.1-16.1 11.2 0-.3 4.7-5.5 10.5-11.6 12.3-13 16.5-20.3 16.5-28.6 0-2.9.3-5.3.6-5.3.4 0 .4 3.9.2 8.7"/></svg>