<svg xmlns="http://www.w3.org/2000/svg" viewBox="0 0 1536 654"><path d="M821.5.7c-32.3 1.3-83.5 6-91 8.3-1.6.5-7 1.6-12 2.4-22 3.6-56.1 13.5-71.4 20.8-18.7 8.8-46.5 17.4-104.6 32.3-47.8 12.3-62.4 17.6-99 35.5-24 11.8-48.2 26-63 37-5.3 3.9-22.4 18.1-38.1 31.6-15.7 13.4-31.2 26.5-34.6 29-13.5 9.9-33.9 19.3-53.3 24.4-11.8 3.2-12.3 3.2-29 2.8-24.7-.7-33.1-3-47.7-13.1-9.9-6.9-15.3-9.8-24.1-12.8-5.3-1.8-8.3-3.4-8.5-4.5-.6-2.6 6.4-15.7 12.8-24.2 15.9-21.2 39.5-36.8 63.5-42.3 12.2-2.8 30.6-3 43-.5 16.1 3.2 23.8 1.1 29.1-8 3.3-5.7 2.9-10.3-1.6-16.8-6-8.8-15.2-13-32-14.6-25.1-2.6-67.1 5.4-88 16.7-33.7 18.1-74.1 52.6-99.2 84.4C55.7 210.8 45.7 227 31.3 256c-10.1 20.3-15 29-21.1 37.2-4.9 6.6-8.4 12.4-9.2 15.3-2 7-1 7.9 9.4 8.7 5.5.4 9.7 1.3 11.3 2.3 2.1 1.4 4 1.6 11.5 1 8.2-.7 10.1-1.2 21.2-6.5 12.5-6 19.5-7.8 32.1-8.3 5.8-.2 6.3 0 14.5 5.6 14.7 10 26.9 20.2 48 40.2 35.8 33.9 57.4 49.1 82.9 58.5 10.1 3.7 32.8 9.5 43.1 11 6.7.9 34.8 3.9 37.6 4 .6 0 3.7 3.4 6.9 7.6 6.3 8.2 12 11.8 25.6 16.3 3.6 1.2 7.9 3.2 9.6 4.4 4.8 3.6 13.3 11.4 13.3 12.3 0 .5-1.6 4.1-3.6 8.1-2.3 4.7-5.2 13.9-8.3 26.5-5.8 23.4-10.7 39-16.6 53.9-4.5 11-7.5 24.1-7.5 32.4 0 9.9-7.7 31.9-14.9 42.5-6 8.9-9.3 16.1-8 17.6 4 4.9 31 4 43-1.3 6.5-2.9 11.7-7.8 12.8-12.1.5-2.1 1.2-11.8 1.5-21.7 1-28.8 3.3-49 6.5-57.6 1.2-3.1 7.8-15.2 14.8-27 13.7-23.3 23.4-42.6 25.7-51.5.8-3.1 1.6-5.8 1.8-6 1-.9 11.1 7.1 16.1 12.7 6 6.7 8 11.6 13.2 31.4 3.5 13.6 8.2 42.5 9.5 58.5.5 7.4 1.5 19.6 2.2 27 .6 7.5.8 15.2.4 17.1-.3 2-3.1 7.6-6.2 12.5-7 11.4-8.9 15.2-8 16.1 1.2 1.2 13.4 2.2 27.3 2.2 13.2.1 13.3.1 16.4-2.7l3.2-2.8.3-20.5c.2-11.2.4-22.7.5-25.4.1-2.8-.6-8.8-1.5-13.5-1.5-7.3-1.7-12.1-1.2-33.3.4-18.8.2-26.9-.9-33.5-.8-4.8-1.9-14-2.5-20.5-1.5-16.6-3.6-22.1-12.2-31.3-2.7-2.9-8.8-16-8.8-19 0-1.5 10.6-5 25.5-8.3 14.3-3.3 68.5-12.4 74.4-12.5l5.4-.1 1.2 6c2.5 12 11.5 31.7 20.8 45.3 4.2 6.3 10.3 20 14.5 32.6 3.1 9.5 3.7 12.4 3.7 20.1 0 7.4-.4 9.7-2.3 13.2-1.2 2.4-2.9 7.3-3.8 11-.8 3.7-2.6 9-3.9 11.8-3.5 7.2-17.2 27.8-24.1 36.1-3.2 3.9-7.3 9.1-9 11.6-4.6 6.6-14.7 14.6-23.9 18.8-5.9 2.7-9.4 5.2-13.2 9.3-2.9 3.1-5.3 6.2-5.3 7 0 2.2 11.9 3 44.4 3h29l3.1-3.4c2.3-2.6 3.9-6.2 6.5-15.4 5.9-20.8 17.6-41 40.3-69.9 7.4-9.4 7.9-12.1 4.1-23.6-2.6-7.9-2.8-9.7-2.8-25.5 0-9.4.4-29.6.8-45 .7-21.2.5-29.8-.4-35.5-2.1-12.4-2.1-12.5 2.3-12.8 3.7-.3 4.4.2 15.5 10.6 18.6 17.3 31.8 26.8 52.3 37.8 17.3 9.2 40.3 24.3 48.5 31.8 10.1 9.2 20.4 23.5 20.4 28.2 0 1 1.6 4.9 3.5 8.8 4.4 9.1 5.7 18.3 5.8 42.6.2 16.7-.1 19.1-2.1 25-1.4 4.3-2.2 8.9-2.2 13.6 0 6.2-.4 7.6-2.9 11.1-3 4.1-5.4 5.3-19 9.4-5.7 1.7-8.4 3.1-11.8 6.5-2.5 2.3-4.3 4.9-4.1 5.6.5 1.5 13.2 2.5 34.9 2.7 13.4.1 13.8 0 19.4-2.9 5.7-3 7.5-3.1 7.5-.6 0 .8.8 2.3 1.8 3.5l1.7 2.2 4.5-2.3c5.8-3 8.5-7.2 10.6-16.6.9-4.2 2.8-10.5 4-14 1.3-3.4 2.4-7.4 2.4-8.9 0-1.4-1.8-6.3-4-10.8-5.3-11-6.8-23.7-5.1-43.6 3.8-44.3 3.7-41.1 1.2-46.2-2.3-4.8-4.1-6.5-15.1-14.5-4.3-3.1-11.2-10.3-20.8-21.7-11.7-14-15.1-18.8-19.3-27.2-5.4-11-20.4-55.5-19.5-57.8 1-2.7 10.2-8.5 27.1-17.2 21.5-11 36.7-20 62.5-37.4 16.4-11 22.3-15.6 29.6-23.1 8.2-8.4 9.8-10.6 15.8-22.7 3.7-7.3 9.2-19 12.2-25.8 7.5-17.3 11.7-24.5 19-32.6 3.5-3.8 8.1-10.4 10.3-14.6 6.7-12.9 3.6-11.4 49.1-24.5 24.1-7 70.9-18.4 120.5-29.5 25.2-5.5 26.6-5.8 48.5-8.6 10.7-1.3 28.1-3.5 38.5-4.9 44.3-5.7 83.8-6.5 142-2.6 26.2 1.7 74.9 6.5 76.5 7.5.3.2 6.5.9 13.6 1.5 31.6 2.7 62.8 7.4 90.1 13.6 21.5 4.9 27.1 3.9 17.6-3.1-5.8-4.2-31-16.8-44.3-22-22-8.6-124.3-42.6-150-49.9-16.4-4.6-32.7-8.7-47.5-12.1-6.6-1.5-16-4-21-5.6-4.9-1.5-13.8-4-19.7-5.3-5.8-1.4-18.4-5.1-28-8.2-9.5-3-25.4-7.5-35.3-9.9s-27.9-6.8-40-9.8c-53-13.2-64.9-15.6-125-25.7-36.1-6-43.3-7.1-60-9-9.3-1.1-17.7-2.2-18.5-2.5-4.1-1.3-48.6-4.7-72.5-5.5-25.9-.9-32.6-.9-48-.3"/></svg>