<svg xmlns="http://www.w3.org/2000/svg" viewBox="0 0 1536 568"><path d="M124.5 1c-9.8.6-12.2 1.6-22 8.5-3.3 2.3-11.8 7.7-19 12-7.1 4.3-15.7 9.7-19 12-3.3 2.4-10.3 6.6-15.5 9.5C25.7 55.8 12.9 68.5 2.5 88.9c-2.6 5.3-2.7 5.9-2 15.2.7 10 2.6 19.4 4.4 21.2.6.6 2.1.6 4.1-.2 2.7-.9 4-.7 7.8.9 7.1 3.2 11.7 2.7 19.7-2.2 24.3-14.6 37.8-17.6 82-18.1l22-.2 6.9 3.3c11.8 5.5 18.1 11 49.2 42.4 40.2 40.6 48.3 49.8 83 94.8 6.2 8.1 12.3 21 15 31.8 3 11.9 8.7 23.8 16 32.7 6.6 8.2 7.1 9.3 12.9 27.9 4.1 13.1 12.9 38.3 18.8 53.7l2.6 6.6-6.9 11.1c-3.8 6-11.7 19.5-17.6 29.8-16.2 28.7-26.2 42.6-36.3 50.7-6.7 5.4-11.3 7.5-30.1 14.2-7.4 2.6-13.9 5.1-14.4 5.6-.6.5 3.2.9 9.5 1 12.9 0 25.7 1.3 27.1 2.7.7.7.5 2.7-.7 6.4-2.6 7.8-5 12.2-12.5 22.8-7.1 10-12 18.8-12 21.5 0 1.3.8 1.6 3.4 1.4 1.9-.2 4 .2 4.8.8 1.7 1.4 36.6.7 38.4-.8.6-.5 1.4-5.6 1.7-11.3.6-11 3-18.7 6.8-22.2 2.3-2.1 3-1.5 5.4 5.1 3.8 10.7 12.7 22.4 15.9 21.2 2.2-.9 2-3.2-1-17l-2.7-11.9 1.8-12.4c2.1-15.6 4.3-22.7 9.4-31.3 5.4-9.1 18.1-25.9 31.1-41.1 24.6-28.9 23.4-26.2 23.8-52.3.4-19.5-.7-32.2-3.5-43.6-.5-2.1 1.1-1 8.4 5.9 4.9 4.7 13.9 12.8 20 18l11.1 9.5.8 18.5c1.4 28.8 1.1 64.1-.5 75-2.1 13.9-5.1 19.2-20.5 35.9-4.8 5.1-8.5 9.5-8.3 9.7s5.2-1.7 11.3-4.1c11.3-4.6 20.5-7.1 23-6.1 2.2.8 1.8 13.7-.6 22.7-4.3 15.4-5.5 22.6-4.2 24.2 1.6 1.9 7.5.7 10.5-2.1 1.2-1.1 3.3-2.3 4.7-2.7 2.3-.5 2.8-.1 4.4 3.5 3.2 7.4 8.8 8.8 12.3 3.2 6.3-10.4 6.1-10.2 12.4-10.2 5.2 0 6-.3 7.7-2.7 4.3-6.2 3.8-8.7-4.4-20.9-3.7-5.6-5.4-9.2-5.4-11.4 0-1.7.3-3 .8-2.8.4.1 5.5 2.6 11.2 5.5 12.4 6.1 19.4 8.3 21.2 6.5.9-.9-1.4-3.7-9.9-11.9-6.1-5.9-12.2-12.8-13.6-15.3-4.3-7.6-12.8-29.8-13.8-36.3-1.4-8.7.3-32 4.6-62.7 4-28.4 3.9-34.3-1-47.7-1.2-3.5-2-6.3-1.6-6.3.3 0 6.2 1.6 13.1 3.5 13.8 3.9 30.6 7.2 53.5 10.5l15 2.2 6.5 6.2c9.7 9.2 19.6 17.7 38.5 33.2 26 21.3 26.5 21.9 28.1 37.5 1.2 11.8-2.4 17.1-22.7 33.5-8.7 7-12.8 11.1-16.4 16.4-2.6 3.9-8.1 10.3-12.1 14.2-9.3 9.1-16.5 23.5-16.8 33.6-.2 5.9 2.6 5.4 9.4-2 4.9-5.1 6-5.9 6-4.1 0 6.5 2.5 6.8 8.1.8 3.1-3.3 5-4.5 7.1-4.5 3.5 0 5.7-1.1 12.3-6 6.8-5.1 10.8-6.8 18.6-7.9 11.9-1.7 15.2-4.6 16.3-14.6.8-7.2 2.2-8.8 17.6-21 15.5-12.2 19.1-17.9 19.1-30.4 0-9.1-.5-10.5-12.4-35.1-8.9-18.3-19.1-41.9-18.5-42.6.2-.2 2.8-.1 5.8.3 5.2.6 5.5.8 18.3 13.5 19.3 19.3 30.3 27.5 71.3 53.1 9.4 5.8 19.1 12.5 21.7 14.7 7.5 6.6 12.1 14.5 14.7 25.2 1.3 5.1 4 14.4 6.1 20.5 2.1 6.2 4 13.6 4.4 16.5.8 6.8-1 17.9-4 24.5-2.7 6.1-6.4 8.7-14.3 10.4-9.2 1.9-25.2 14.2-25.2 19.3 0 2 1.8 2 9.5.1 7.2-1.7 12.2-1.9 12.7-.4.7 2.1 9.3 3.1 21.8 2.4l12.4-.7 6.8-6.7c3.9-3.9 7.6-8.7 8.8-11.4 1.2-2.8 3.2-5.3 4.8-6.1 4-2.1 9.9-8.6 11.7-12.8 3-7.2 2.1-11.3-4.5-21.3-5.9-8.9-6-9.2-6.2-16.5-.1-4.1.2-11.1.7-15.6 1-10.1-.2-12.9-11.2-27.4-4.4-5.8-10.2-13.9-13-18-6.5-9.7-35.5-59.1-35-59.6.2-.2 5.7.3 12.3 1.2 15.1 2 27.4 1.5 31.1-1.2 1.4-1.1 4.7-5.9 7.3-10.7 5.4-10.1 7.4-12.4 15.5-18.2 4.4-3.1 8.2-4.8 14.3-6.3 10.3-2.6 13.3-4.7 18.6-13.1 2.4-3.6 4.9-7.2 5.8-7.8 1.7-1.5 23.5-4.2 65.8-8.3 17.3-1.6 43-4.1 57-5.4 14-1.4 35.9-3.4 48.5-4.6 12.7-1.1 40.8-3.9 62.5-6 134.3-13.4 196-16.8 252.5-14.1 41.2 2 64.8 4.5 140 14.6 40.5 5.4 48.5 6.2 48.5 4.6 0-4.3-52.9-18.6-118.3-32-30.3-6.2-64.8-12.5-114.7-20.7-149.7-24.6-200.6-34.4-244.5-47.2-86.2-25.2-119.2-35.2-164-49.7-15.9-5.2-35.3-11.3-43-13.5-7.7-2.3-27.3-8.2-43.5-13.1-39.1-11.7-41.2-12.3-64.5-15.4-23.4-3.1-42.7-6.2-68.8-11-25.4-4.7-39.8-6.9-68.7-10.5-35.1-4.3-50.5-5-114-5.7-61.2-.6-79.9.1-118 4.2-31.3 3.3-41.8 3.8-54.3 2.5-30-3-46.8-11.3-81.2-40-19.4-16.2-29.7-23.4-44.1-30.8-23-11.8-37.9-14.4-68.9-12.2"/></svg>