<svg xmlns="http://www.w3.org/2000/svg" viewBox="0 0 1536 963"><path d="M121.5 1.3c-7.6 2-15.3 5.9-22.6 11.4-6.2 4.7-7.3 5.1-15 6.1-4.6.6-12 1.4-16.4 1.7-15.6 1.2-38.3 6.2-48.9 10.9C6.2 36.9-3.3 50.5 1.3 56.2c.6.9 3.4 1.8 6.2 2.2 2.8.3 6.8.9 9.1 1.4s6.5.5 9.5 0c16.1-2.5 29.1-2 49.4 2.2 23.8 4.9 34.6 11.9 37.4 24.1 1.8 8 2.1 45.2.4 57.4-1.9 14.2-7.3 35-16.8 65-11 34.6-14.6 49.1-14.6 59.5.1 16.1 6.6 33 19 49.3 3.2 4.2 5.3 8.3 6.5 12.7 3.2 11.3 11.4 33.8 14.6 39.8 5.4 10.1 14 20.3 21.2 25.2 8.9 6 10.5 7.6 11.9 11.9 2.1 6.1 23.5 27.9 25.5 25.8.3-.3-.2-2-1.1-3.9l-1.7-3.3 2.8 2.6c2.7 2.4 6.6 4.9 7.8 4.9.2 0 .6-.7.8-1.5.2-1 2.3-.1 7.9 3.5 17.1 11 35.6 19.6 56.9 26.2 5.2 1.7 13 4.4 17.4 6l7.8 3-.6 4.7c-2.9 19.7-3.6 27.4-3.6 39.6 0 7.7-.7 22.7-1.5 33.4-1.2 14.8-1.3 21.8-.5 29.4.5 5.4 1 12.1 1 14.8s.9 7.3 1.9 10.2c10 27.5 14.1 39.4 14.7 42.3.7 4 3.6 8.3 14.6 21.8 8.9 10.9 12.9 14.2 19.4 16.2 7.1 2.1 8.1 1.7 3.7-1.5-4.8-3.4-6.4-5.8-12.5-17.1-3.7-6.9-4.7-9.8-5.1-15.3-.4-4.1-1.7-9.1-3.1-12.3-2.2-4.7-2.3-5.3-.7-4.4 4.9 2.6 9.5 9.8 15.7 24.3 2.8 6.8 4.6 9.3 12 16.8 10.6 10.7 16.2 14 25.2 14.7 4.4.3 6.3.2 5.9-.5-.4-.6-1.9-1.4-3.4-1.7-4.8-1.2-13-7.3-16.3-12.1-2.4-3.5-3.4-6.4-4.1-11.6-.5-3.9-1.1-7.4-1.4-8-.4-.5-.2-.9.3-.9 1 0 5.2 4.6 13.1 14 6 7.1 14.7 11.3 24.9 11.8 4 .3 7.2 0 7.2-.5s-3.3-2.4-7.3-4.2c-8.6-3.7-15.6-9-12.1-9.1 1.1 0 4.6.8 7.6 1.9 5.2 1.8 21.8 3.3 21.8 2 0-.3-1.5-1.1-3.2-1.7l-3.3-1 4-.2c2.2-.1 5.4-.5 7-.9l3-.7-5-2.6c-6.3-3.3-13.5-8.5-13.5-9.8 0-.6 2.5-.8 6.8-.4 5.2.4 7.2.2 8.7-.9 2.4-1.9 1.6-2.8-4.5-5.1-2.5-.9-5.6-2.5-7-3.6l-2.5-2h4.7c7.3 0 10.3-1.9 5.6-3.5-2.3-.8-2.3-.8.2-1.2 2.4-.5 7-3.9 7-5.4 0-.4-1.7-1-3.7-1.3-2.1-.4-5.4-1.2-7.3-1.9l-3.5-1.1 6.3-.7c4.6-.4 7-1.2 8.5-2.8 1.9-1.8 1.9-2.3.7-3.4-.8-.7-4-2.1-7.1-3-3.1-1-6.2-2.4-6.9-3.2-1.1-1.3-.4-1.5 5.4-1.5 7.9 0 9.7-1.8 5.3-5.6l-2.6-2.3 2.9-.6c3.4-.7 6-2.9 6-5.1 0-.7-2.1-2.5-4.7-3.9l-4.8-2.5 3.7.6c3.3.5 4.1.2 7-2.7l3.3-3.3-3.5-.6c-3.8-.7-9.5-3.4-10.5-5-.4-.6 1.4-1 4.7-1 6.3 0 8.1-1 7.6-4-.2-1.5-1.5-2.6-4.2-3.5-2.1-.8-4.5-2-5.3-2.7-1.1-1.2-.4-1.4 5-1.5 3.5 0 7.4-.4 8.6-.8 2.2-.7 1.9-1-3-3.7-3-1.6-6-3.5-6.8-4.3-1.2-1.1-.8-1.3 2.7-.8 5.4.7 7.9-.2 6.2-2.2-1-1.2-.9-1.5.8-1.5 1.1 0 2.5-.7 3.2-1.5 1-1.2.8-2.1-.8-4.9-1.5-2.5-1.7-3.3-.6-2.9 2.1.8 1.8-4.5-.6-9.2-1.1-2.2-2-4-2-4.1s.9-.4 2-.7c1.5-.4 2-1.4 2-4 0-5-1.8-9.6-6.2-15.4-6.5-8.8-6.1-10.1 1.7-6.2 3.5 1.8 4.6 3.1 6.5 7.8 6.9 16.8 16.3 31.9 37 59.6 23.6 31.5 43.4 51.1 71.5 71 23.2 16.4 41.8 32.6 54.2 47.1 4.3 4.9 10.7 12.3 14.2 16.4s7.5 9.9 8.9 12.9c2.3 5 2.6 6.8 2.6 18.6.1 14.3-1.9 23.9-10.6 52.5-7.7 25.3-24.6 68-35.4 89-5.9 11.6-17.9 26.9-25.2 32-3.7 2.7-4.3 3.5-4 6.2.3 3-.1 3.3-9.4 8.3-11.6 6.1-22.1 9.6-38.6 12.9-16.2 3.2-25.4 7.5-32.7 15.3-3 3.2-5.5 6.1-5.5 6.5 0 .3 2 0 4.4-.7 7.2-2.2 12.2-2.2 14.6 0 1.9 1.7 3.9 2 14.8 2.2 8.8.1 13.5-.2 15.8-1.2 2.1-.9 3.4-1 3.4-.4 0 .8 3.1.8 9.8.3 5.3-.5 11.5-.7 13.7-.6 5.9.3 13.9-1.6 17.9-4.3 3.5-2.4 3.9-2.4 12.3-1.4 11 1.4 21.4.7 24.9-1.5 4.2-2.8 5.6-7.8 6-20.8.3-11.3.4-11.8 3.5-16 4.1-5.6 5.6-9.2 7.4-18.1.9-3.9 3.5-13.3 6-20.7 2.4-7.4 7.1-23 10.4-34.5 3.3-11.6 8.3-28.4 11.1-37.5 2.8-9 8-27 11.6-40 3.6-12.9 7.8-26.9 9.4-31 5.4-14.2 6.3-31.8 1.9-37.4-1.2-1.5-3.4-2.7-6-3.1-6.9-1.2-26.1-18.2-30.7-27.1-1.1-2.1-3.2-9.5-4.7-16.4-4.9-22.5-13.8-49.9-20.5-63.1-1.2-2.2-1.9-4.3-1.7-4.6.6-.5 44.1 10.1 63.7 15.7 8 2.2 20.8 5.3 28.5 6.9 15.9 3.3 27.6 7.3 37.3 12.7 19 10.6 28.5 18.3 32.7 26.4 3.8 7.5 34.3 84.5 39 98.5 2.4 7.1 5.6 18.8 7 26 1.5 7.1 4.4 18.4 6.5 25 2.8 9 3.9 14.6 4.4 22.2 1.1 16.6 3.5 22.3 10.1 23.9 8 1.9 17.3 10.4 29.8 27.2 6.1 8.2 8.1 11.9 10.2 18.5 1.4 4.5 3.7 9.3 4.9 10.7 1.3 1.4 2.7 3.6 3.1 5 2.3 7.8 10 17.7 15.6 20 1.6.7 3.2 1.1 3.4.8.3-.2-.4-2.2-1.5-4.3-2.8-5.5-2.7-14.8.1-19.5 1.2-2 2.6-6.8 3.3-11.3l1.1-7.7 5.5 3.4c5.5 3.4 13 5.7 13 3.9 0-.5-1.2-2-2.6-3.4-2.5-2.3-5.4-7.6-5.4-9.9 0-.6 2.5-1 5.8-1 3.1 0 7.4-.3 9.5-.6l3.8-.7-5.4-2.2c-7.8-3.1-11.4-6-13.5-10.9-2.8-6.1-8.1-11-17.1-15.6-6.2-3.1-8.8-5.1-12.5-9.7-2.9-3.6-4.6-6.8-4.6-8.5 0-4.6-4.8-18.3-8-22.6-1.6-2.3-5.8-6.2-9.2-8.7s-7.8-6.8-9.7-9.7c-4.5-6.7-14.3-28.5-17.1-37.9-1.2-4.1-6-17.1-10.7-28.9-18-45.6-21.2-60.2-18.8-87.3.6-7.1.4-9.6-.9-13.1-2.4-6.2-4.9-8.1-16.6-12.4-33.5-12.5-46.4-19-56.6-28.5-8.3-7.8-10.6-11.2-16.5-24.8-7.7-17.7-15.7-30.7-24.4-39.4-9.4-9.5-16-13.2-34.9-19.6-8.2-2.8-12.3-4.7-11.5-5.2 22-12.7 33.6-21.9 43.4-34l6-7.4 9.7-.7c14.9-1.1 75.3-2.5 105.1-2.6 25.6 0 27.4.1 42 3 8.3 1.6 22 4.1 30.2 5.4 25.1 4.2 35.1 8.7 59.5 26.7 3 2.2 9.9 6.3 15.3 9.1s14.1 8.1 19.5 12c11.6 8.3 12.4 7.6 5.7-4.9l-4.6-8.6 3.8 2.3c7.3 4.4 13.9 9.6 22.8 17.8 4.9 4.6 13.3 11.2 18.5 14.7 10.7 7.1 12.2 8.6 20.9 20.7 3.4 4.8 8.3 10.5 10.9 12.8 5.6 5.1 13.2 10.4 13.8 9.8.2-.3-1.4-4.6-3.6-9.8-2.3-5.1-3.9-9.4-3.7-9.6 1-1 14.9 14.5 20.7 23.1 3.8 5.5 8.5 11.6 10.6 13.6 4.7 4.4 11.4 9.4 11.4 8.5 0-.3-1.6-4.5-3.5-9.3s-3.5-8.8-3.5-8.8c0-.1 3.5 3.3 7.9 7.6 6.1 6 9.8 8.7 16.5 11.9 4.8 2.3 8.9 4 9.2 3.8.2-.3-.5-2.6-1.6-5.2-1.1-2.5-2.9-6.7-4.1-9.3-1.1-2.7-1.6-4.4-1.2-3.8.5.5 2.6 3.2 4.7 5.8 2.2 2.7 6.6 6.9 10 9.4 6.8 5 29.5 18.7 30.1 18.2.2-.2-.7-4.9-2.1-10.4-2.5-10.3-3-14.5-1.6-14.5.4.1 4.8 5.5 9.7 12.1 5 6.7 11 14 13.5 16.3 4.2 3.8 4.5 3.9 4.8 1.9.2-1.2-.8-5-2.2-8.5l-2.5-6.3 3.6 4c1.9 2.2 5.7 8.3 8.3 13.5 5.3 10.4 9.9 15.5 19.3 21.4l5.7 3.7v-6.8c0-3.7.5-8.6 1.2-10.8l1.2-4 .7 5c1.9 13 10.3 25.5 21.2 31.1 3.2 1.7 3.2 1.7 1-2.7-2-4-2.9-15.3-1.4-18.9.9-2.3 1-2.1 1 1.8.1 2.4.6 5.3 1.3 6.5 1.4 2.6 12.8 16.1 14 16.5.8.4.4-2.7-.8-6.6-.6-2.1.5-1.4 4.3 2.9 3.2 3.5 9.8 7.9 11.9 7.9.4 0-.2-1-1.4-2.3-4.6-4.9-10.3-21.7-7.4-21.7.6 0 2.1 1.5 3.4 3.2l2.3 3.3.5-5 .6-5 1.2 3c3 7.1 6.5 13.3 9.8 17 3.1 3.5 3.5 3.7 2.9 1.5-1.1-4.6-1.8-13.9-1.1-15.7.6-1.4 1.1-.9 2.6 2.5 3.4 7.6 12.5 20.5 18.6 26.4 5.1 5 12.5 10.8 13.7 10.8.2 0-2.2-5.1-5.4-11.3-3.2-6.1-5.8-11.6-5.9-12.1 0-.4 1.6.6 3.5 2.3 2 1.7 3.8 3.1 4 3.1.3 0-.5-2.4-1.6-5.3-3.4-8.5-3.4-8.4-1.7-6.7.8.8 6.2 6.9 12 13.5 12.4 14.2 25.5 26.8 26.8 26 1.5-.9 1.2-6.5-.5-12.1-2.1-7-1.9-7.4 1.3-2.3 3.2 5 15.6 16.9 17.6 16.9.9 0 .3-2.5-2.1-8.5-1.9-4.7-3.3-9.1-3.1-9.7s2.3 1.6 4.7 4.7c5 6.6 25.2 27.8 25.8 27.1 1-.9-2.8-11.3-5.7-15.9-2.8-4.4-2.8-4.7-.8-3.6 1.3.7 4.9 3.2 8 5.6 5.3 4.2 7.7 7.1 12.6 15.3 2.4 4 12.9 14.6 13.7 13.9.3-.3 0-2-.6-3.7s-.9-4.5-.7-6.4l.3-3.3 4.6 7c2.5 3.8 6.1 9.8 7.8 13.2 3.9 7.2 12.2 17.6 17.4 21.6l3.6 2.7-1.6-5.2c-.8-2.9-2.2-7-3-9.1-.9-2.1-1.3-4-1.1-4.3.3-.2 3.2 2.8 6.4 6.8 7 8.7 25.6 28 26.2 27.3.8-.8-3-9.8-6.4-15.2-1.9-2.9-3.1-5.3-2.7-5.3 2 0 9.7 7.9 14.3 14.7 6.4 9.3 9.9 13.3 11.8 13.3 1.4 0 1.2-3.9-.5-8.8-.3-.9.8.3 2.4 2.8 5 7.5 18.1 18.5 20 16.7.3-.3-1.8-5-4.6-10.3-2.7-5.4-4.9-9.9-4.8-10 .1-.2 8.9 6.9 19.5 15.7 10.5 8.8 19.2 15.6 19.2 15.3 0-2-41.9-53.9-62.4-77.4-28-32-74.1-79.2-104.6-107.1-34.8-31.7-77.8-66.5-120.5-97.4-21.7-15.7-78.5-53.6-101.5-67.7-60.2-37-116.4-61-201-86.2-17.6-5.2-27.1-7.8-72-19.6-42.3-11.2-100.3-29.1-130.5-40.5-7.7-2.9-23-9.1-34-13.8-42-17.7-78.3-28.6-130.5-39.1-75.4-15.1-120.8-16.2-198.6-5.1-30.5 4.4-59.6 9.6-79.4 14.1-53.2 12.2-82.1 12-112.5-.7-12.6-5.2-20.9-13.4-23.6-23.1-4.6-17.2-3.6-46.2 2.7-74.8 2.1-9.8 14.4-47.6 25.4-78.3 4.5-12.8 4.8-19.5 1.5-35.8-4.3-21.3-11.3-33.2-22.6-38.7-10.4-5-38.5-8.4-48.4-5.9"/></svg>