<svg xmlns="http://www.w3.org/2000/svg" viewBox="0 0 1536 689"><path d="M93.5 1c-3.3.4-15.9.8-28 .9-24.5.1-29.7.9-39.7 6.3C15.9 13.5 9 22.7 5.4 35.7 4.1 40.2 3.8 45.8 3.9 61c0 14-.5 24.1-1.9 35.9-1.1 9-1.8 16.6-1.5 16.9.7.7 11-2.5 15.7-4.9 2.1-1.1 6.5-4.4 9.9-7.4 6.5-5.9 10.4-7.2 16.7-6 10.1 1.9 9.2 2.2 9.2-2.4 0-5.3 1.2-5.9 15.7-7.1 13.7-1.1 14.3-.8 14.3 7.2 0 4.1-.5 5.4-3.5 8.7-4.3 4.8-8.8 14.4-10.9 23.6-4.8 21.2-5.6 24.8-5.6 26.6 0 2.8-3.2 8.7-8 14.3-2.2 2.7-3.9 5.4-3.7 6 .9 2.7 24.8-1.7 33.7-6.2 4.7-2.4 5.6-3.3 6.9-7.2 2.5-7.8 20.7-28.8 31.1-35.9 7-4.8 29.7-17.1 37.7-20.5 9.7-4.1 13.4-4.3 19.5-1.3 5.7 2.8 10.4 7.7 19.3 20.4 6.2 8.7 16.9 19.9 26.1 27.4 3.3 2.8 9.6 9 13.8 13.9 8 9.1 12 12.5 13.5 11.5.5-.3 2 1.2 3.2 3.2 4.3 7.1 8.4 11.5 19.9 21.3 10 8.6 14.3 13.1 21.6 22.5 1.5 2 1.5 2 .9-.3-.6-2 .9-1.3 9.7 4.6 11.9 8 21 13.3 32.4 19 4.4 2.2 8.6 4.8 9.4 5.7 1 1.2 1.5 1.3 2.1.3.6-.9 1.8-.1 4.5 2.7 3.6 3.9 3.7 3.9 3 1.2-.6-2.7-.5-2.7 1.6-1.6 3.5 1.9 11.7 10.7 13.8 15 2.3 4.4 3.5 5.2 2 1.4-1.7-4.4-3.8-8.2-6.7-11.6l-2.8-3.4 3 2.3c1.6 1.3 4.4 4.4 6.2 6.9 3.3 4.6 3.3 4.6 3.3 1.7l.1-2.9 1.4 2.5c.8 1.4 1.4 1.9 1.5 1 0-3 2.4 1 3 5.2l.6 4.3 1-4.4.9-4.5 2 3c1.2 1.8 2.1 5.2 2.3 9.3.5 7.4 2.1 6.4 2.2-1.4l.1-5 2.2 3c9 12.1 19.4 19.6 38.2 27.6 13.5 5.7 22.3 8.3 47.5 13.9 30.5 6.9 37.3 8.7 45.3 12.4l7.6 3.4 3 9.9c1.6 5.4 4.1 14 5.5 19.1 3.1 11.2 6 17 11.9 24.2 10.8 13.1 25.6 40.9 30.7 57.6 2.5 8.1 3 11.5 2.8 17.6l-.3 7.5 5.3 5.7c4.3 4.8 5.2 6.4 5.2 9.4 0 2-.9 5.1-1.9 6.9-2.4 3.9-10.6 10.5-15.2 12.2-7.4 2.8-7.5 3.2-1.1 2.6 8.5-.7 15.2-3.8 20.6-9.5 5.6-6 8.5-11.7 9.4-18.5l.7-5.4 8.7 8.2 8.7 8.2 3.2 18c3.2 18.2 4.7 35.5 3.5 41.7-.3 1.9-2.2 5.8-4.1 8.8-2.4 3.6-3.4 6.2-3 7.6.3 1.3-.1 2.7-1 3.4-1 .9-1.5 3.2-1.5 7.5 0 8-1.7 12.6-8.9 24.4-3.2 5.3-8 13.4-10.6 18.1-8.6 15.2-14.3 22.5-24.8 31.3-4.1 3.5-5.8 5.6-6.3 8.2-.8 4.4-2.6 5.9-9.4 8-3 .9-6.6 2.1-7.9 2.6-9.4 3.8-19 5.2-39.3 5.5-22.3.4-24.6.9-30.6 5.9-3.5 2.9-6.9 8.5-5.3 8.5.6 0 3.2-1.3 5.8-3 6.9-4.4 16-4 20.2 1 1.5 1.7 3.1 1.9 18.1 2 9.1 0 18.1.1 20 0h29.4c14.3.1 26.3-.3 26.8-.8s1.3-4.7 1.8-9.3c.7-7.2 1.7-11.1 4.6-18.9.4-1.2.9-1.1 2.4.8 2.3 2.7 7.3 4.4 10.8 3.5 2.5-.6 2.5-.6-1.1-2.5-2.1-1-3.9-2.8-4.3-4.2-.8-3.3 1.3-17.1 3.2-20.8 2-3.8 15.7-21.5 25.9-33.3 18.9-21.9 22.9-29.3 20.7-38.9-3.3-14.2-4-40.1-1.2-44.5.6-1 3.3.4 10.6 5.6 40.2 28.5 99.8 61.3 109.2 60.1 2.6-.4 2.6-.5-3.1-6-3.2-3.1-10.9-9.6-17.2-14.4s-11.5-8.9-11.5-9.1 3 1.2 6.8 3.1c18.3 9.1 48.3 17.2 61.4 16.4 8.5-.5 6.9-2.5-8.7-10.6-7.7-4-13.1-7-12-6.7 10.4 3.3 27.6 4.8 29.7 2.7 2.7-2.7-3.9-7.9-29.7-23.1-15.9-9.5-47.6-30.3-47-30.9.2-.2 3.2.5 6.7 1.7 14.3 4.6 36.8 7.9 36.8 5.3 0-1.6-7-5.4-18.8-10.3-5.6-2.3-10.1-4.4-9.9-4.6s4.8.2 10.1.8 10.8.8 12.3.5c2.6-.7 2.6-.8.7-2.6-1-1-4.6-3-7.9-4.3l-6-2.5 8.4.5c10.3.7 10.5-.4 1-5.6l-6.4-3.6 5.2-.5c9.5-1 9.6-4.1.3-9.7-4.7-2.9-5-3.2-2.9-3.7 12.4-2.3 13.6-3.9 5.2-7.1-5.7-2.2-6.4-3-3.3-4 1.1-.3 2.4-1.4 3-2.4 1.2-2.3-1.9-5.3-7.5-7.2l-4-1.2 3.5-1c7.8-2 7.2-4.6-1.6-7.4-5.8-1.8-6.3-2.3-3.9-4.3 3.9-3.2.9-5.5-8.5-6.5-8.8-1-11-2.5-10.3-6.9.5-3.2.3-3.6-2.3-4.2-1.5-.4-4.6-.2-6.8.4-2.3.6-4.3.9-4.5.6-.3-.2.8-1.7 2.3-3.3 4.1-4.3 2.7-5.5-5.2-4.6-7.2.8-6.7 1.3-4.6-5.5.5-1.7.2-2-2.3-2-1.6 0-5.5.5-8.7 1.1s-6 .8-6.2.6c-.3-.2 2-2.3 5.1-4.7 3-2.3 5.5-4.6 5.5-5.1s-2.7-.9-6-.9-6-.3-6-.8c.1-.4 1.1-2 2.4-3.6l2.4-2.9 8.3 7.8c4.6 4.3 12.1 10.3 16.7 13.3 11.3 7.4 40.6 22.1 63.1 31.7 25.8 11 95.8 46 106.6 53.3 5 3.3 10.4 7.5 12.2 9.4 4.2 4.5 8.3 12.4 8.3 16.3 0 1.8 1.1 4.6 2.5 6.5s2.5 3.9 2.5 4.6 1.5 2.1 3.3 3.1c2.9 1.8 3.9 3.8 10.6 21.9 10.1 27.5 11.2 32.1 11.8 49.4.2 8 .9 15.7 1.5 17.2s3.2 4.3 5.7 6.2c8.2 5.8 13.4 15.9 14.8 28.3.5 4.9.3 5.5-3.3 10.3-2.2 2.8-5.9 6.4-8.4 7.9-4 2.5-5.2 2.7-11.3 2.3-5.8-.4-7.5-.1-12.2 2.3-5.6 2.7-10.5 7.8-10.5 10.8 0 2.4 1.9 2.1 4.1-.8 1.2-1.4 4.3-3.2 7.5-4.2l5.6-1.7 7.6 3.9c10.9 5.6 17.1 4.7 25.5-3.7l4.4-4.4 3.4 2.3c5.1 3.5 6.6 2.8 2.9-1.3-3.6-4.2-3.5-6.8.7-11.8 2-2.4 2.4-3.6 1.9-6.5-.4-2-1.1-7.9-1.7-13.1-.8-7.2-1.6-10.4-3.4-13.2-1.4-2.1-2.5-4.9-2.5-6.2 0-1.4-1.4-6.5-3.1-11.3-4.7-13.4-4.8-14.5-.6-16.5 2-.9 3.8-2.6 4.2-3.8.8-2.6-.1-3.8-1.7-2.2-2 2-5.5 1.3-7.7-1.4-4.5-5.7-7.3-13.8-12.2-35.4-4.6-20-5.2-24.2-5.8-38-.6-15-.7-15.7-3.6-20.2-1.8-3-6.4-7.4-12-11.6-4.9-3.8-15.5-12.7-23.5-19.8s-20.6-18.2-28-24.5c-7.4-6.4-16-14.7-19.1-18.5C874 407.6 857 378 857 371.3c0-2.4.2-2.6 1.5-1.2.9.8 2.5 3.7 3.6 6.5 1.4 3.4 1.8 4 1.5 2l-.4-3 2 2.5c1.4 1.8 1.2 1-.7-2.9-1.5-3-2.4-5.7-2.1-6 .4-.3 2 .7 3.6 2.3 5.4 5.2 4.2 1.8-1.6-4.4-5.7-6.2-6.5-8.3-2.2-6 3.5 1.8 5.7 4.5 8.4 10.2 2.3 4.8 2.6 3.6.8-2.5-.7-2.5 2.3-1.2 3.1 1.3.4 1 1.1 1.9 1.7 1.9 1 0 .4-11.9-.9-16.5-.4-1.5-.2-1.7.6-.9.7.6 1.6 4.9 2 9.5l.8 8.4.2-6.9c.1-6.4.2-6.8 1.6-5 1.3 1.7 1.3 1.4 0-2.5-.8-2.4-1.3-4.6-1.1-4.9 1.1-1.1 2.7 1.4 4.2 6.6 2.4 8.5 3.4 8.6 3.4.2v-7.5l2.1 3.2c1.2 1.8 2.3 3.3 2.6 3.3.6 0 .5-.2-3.2-8.5-1.4-3.3-2-5.3-1.2-4.5 2.2 2.4 5.9 12 5.2 13.8-.5 1.3-.3 1.4.6.5s.7-3-.7-9c-1-4.3-1.9-8.5-2-9.4 0-.8-.9-2.8-1.9-4.5l-1.7-2.9 2.6 2.9c1.5 1.6 2.5 3.4 2.3 4.1-.3.6-.1 1.8.4 2.6.7 1.1.9 1.1.9.1 0-.7.4-1 1-.7q.9.6 0-2.1c-1.4-3.6-.7-4.1 1.1-.6.8 1.5 1.7 2.9 2.1 3.2s1.8 3 3.2 6c3.1 6.5 3.3 5.5.7-2.9-1-3.4-1.7-6.1-1.5-6.1.3 0 0-1-.6-2.3-1.1-2.2-1.1-2.2.5-.2 2 2.4 5.5 10.1 5.5 12.1 0 .8.4 1.4.9 1.4 1.2 0 1.9-12 .9-14.2-.5-.9-1.1-4.5-1.5-8-.6-6.2-.6-6.3 1.4-4.6 2.5 2.3 5.8 9 7.8 15.8l1.5 5.5-.5-6.5c-.4-3.6-.9-7.6-1.2-9-.6-2.3-.5-2.4 1.1-1.1.9.8 2.9 3.4 4.3 5.8 5.4 9.3 2.8 1.5-3.3-9.5-4.1-7.5-2.7-7.4 1.6.1 1.6 2.9 3 4.5 3 3.7 0-1.4-1.8-8.5-3.5-14l-.7-2.5 2.5 2.4c1.4 1.3 2.8 3.1 3 4 .3.9.3-.2.1-2.4-.2-2.3-.6-5-.9-6-.6-1.8-.6-1.9.5-.2.6.9 1.5 1.5 2 1.2 1.4-.9 7.8 7.5 10 12.9 2 5.1 2 5.1 1.3 1.1-.3-2.2-1.2-5.7-1.9-7.9-1.9-5.4-1.8-5.6 1.7-1.6 2.4 2.7 2.8 2.9 1.8 1-.6-1.4-2.3-4-3.6-5.8-2.7-3.7-4.9-9.7-3.1-8.6.8.5.9-.1.5-1.7l-.6-2.4 2 2.4c1.7 2.1 1.9 2.1 1.9.5.1-1.8.2-1.8 1.7.1s1.5 1.9.9-1c-.3-1.7-.8-4-1.2-5.3-.4-1.2-.2-2.2.4-2.2 1.7 0 11.2 9.1 12.8 12.2.9 1.7 1.8 2.7 2.1 2.4s-1.1-4-3-8.3c-2-4.3-3.8-9.9-4.1-12.5-.3-2.7-.8-6-1.2-7.5l-.6-2.8 2.6 3c1.4 1.6 3 4.5 3.6 6.2.7 1.8 1.6 3.3 2.1 3.3 1.2 0 1.2 0-.6-5-.8-2.4-1.3-4.5-1.1-4.8.9-.9 2.6 1 2.6 2.9 0 1.1.4 1.8.9 1.4.6-.3 1.4.3 2 1.2 1.7 2.9 1.3.9-.8-3.8-1-2.4-2.2-6-2.6-7.9l-.7-3.5 4.3 4.5c2.4 2.5 5 5.4 5.6 6.5 1.1 1.7 1.1 1.6.3-.7-.5-1.5-1.8-4.4-2.8-6.5-2.3-4.6-3.8-10.3-2.3-8.8 1.5 1.6 6.1 11.1 6.1 12.8 0 2.4 1.8 3 2.5.8.5-1.8-.1-5.5-2.2-12.6-.5-1.8-.4-1.9 1.2-.5 1 .8 2.7 2.8 3.7 4.5l2 3-.4-3.8c-.2-2-.1-3.7.2-3.7s1.6 1.7 2.9 3.7c2.2 3.8 2.2 3.8 1.7.8-1.6-9.5-1.7-11.5-.8-11.5.6 0 1.3.8 1.5 1.7.4 1.7.5 1.7.6 0 .1-1.1.9-1.7 2.5-1.7 1.9 0 2.6.7 3.4 3.7l1 3.8.1-3.6c.1-3.4.2-3.5 4.4-3.7 13.1-.7 37.2-3.5 49.3-5.7 17.7-3.3 27.1-5.7 63.4-16.1 24.6-7.1 57.4-15.6 82.8-21.4l5.2-1.2 7.4 7c4.1 3.9 8.4 7.5 9.5 8.2 1.8.9 2.1.8 2.1-1 0-1.2-.7-3.4-1.5-5-2.8-5.3-.8-3.2 3.8 4.2 2.5 4 5.9 8.6 7.4 10.3l2.8 3 .3-2.8c.2-1.6-.4-4.9-1.2-7.4-.9-2.6-1.4-4.8-1.3-5 .2-.1 4 5.2 8.4 12 7.9 12 13.9 19.5 14.9 18.5.2-.3-.4-4.2-1.4-8.7-1.1-4.4-1.8-8.1-1.6-8.1.1 0 2.8 3.6 5.9 8 5.7 8.1 8.2 10.1 7.1 5.5-.4-1.4-.5-2.5-.3-2.5 1 0 7.5 10.9 8.1 13.5 1 4.4 2.7 8.5 3.7 8.5.8 0 1.6-4.8 2.1-12 .2-2.2.9-3.6 1.8-3.8 1.2-.2 2.2 1.7 3.9 7 3 9.2 8.1 20.8 9.2 20.8.5 0 .9-.9.9-1.9 0-3-3.8-22.4-6.6-33.3-1.3-5.3-2.4-10-2.3-10.5 0-.4 2.4 5.5 5.2 13.2 2.9 7.7 7 17.3 9.1 21.3 4 7.4 16.9 22.2 19.4 22.2 1.7 0 2.3 1.4-7.5-18.1-7.4-14.6-15-32.9-13.8-32.9.3 0 4.1 5.5 8.6 12.2 14.7 22 29.9 41.8 32.1 41.8.6 0 .7-1.5.3-4-.4-2.2-.3-4 .2-4s4.1 2.7 7.9 6c8.2 7.1 10.1 7.7 7.9 2.3-.8-2-1.4-3.8-1.2-3.9.2-.2 3 2 6.2 4.9 5.6 5 6.3 4.9 4-.6-1-2.4.6-2.2 6.5.8 5.4 2.7 7 3.1 5.2 1.3-2.9-2.9-.7-2.4 5.5 1.3 7 4 9.4 3.7 5.2-.7-2.7-2.9-1.7-3.1 2.1-.4s9.2 4.9 10.8 4.3c.6-.3 1.2-1.8 1.2-3.3v-2.9l4.1 1.4c2.3.8 5.1 1.5 6.2 1.5 1.7 0 1.9-.5 1.4-3.3l-.5-3.4 6.4 2.4c7.2 2.6 14.4 3.1 14.4 1s-5.3-9.8-11.1-16.1c-3-3.3-4.9-5.7-4.4-5.5.6.2 5.3 2.5 10.5 5.1 11.2 5.5 19.2 8.2 30.7 10.4 9.7 1.8 15.8 1.6 15.8-.6 0-.8-4-3.6-9-6.3-4.9-2.7-8.1-4.5-7-4.2 17.6 6.4 42.8 12.4 46.2 11 2.9-1-.3-3-17.2-10.5-17.1-7.6-74.8-36.1-74.2-36.7.2-.2 4.6 1.7 9.8 4.1 24.4 11.3 54.5 22.7 85.5 32.4 22.9 7.2 39.5 11.5 42.6 11 3.7-.6-5.6-4.9-58.3-26.8-75.7-31.5-112.4-47.5-124.9-54.4-16.3-9.1-23.9-12.7-37-17.9-23.4-9.2-44.1-14.1-74.5-17.7-33.7-3.9-49.9-4.5-87-2.9-41.7 1.7-104.7 1.8-124.5 0-40.5-3.5-75.4-10.2-109.5-21.1-7.1-2.3-18.6-6-25.5-8.1-41.6-13.3-98.6-27.7-132.4-33.4-42.5-7.2-91.5-7.8-151.1-1.9-29.2 2.8-48 5.7-106.5 16.4-44.3 8.1-55.3 9.8-71 11-26 1.9-46.3.9-70.6-3.6-50.4-9.2-96.3-35.6-122.9-70.6C215.8 33 205.7 23.2 189 14.5 169.9 4.7 151.7.9 120.5.5 109 .3 96.8.5 93.5 1m876.4 261.1c1.6 4.6 1.4 4.8-.9 1.1-2.2-3.7-2.4-4.2-1.1-4.2.5 0 1.4 1.4 2 3.1m-33.3 23.6c-.7.7-2.6-.7-2.6-1.9 0-.6.6-.6 1.5.2.9.7 1.3 1.5 1.1 1.7m-10.9 13.1c.6.4 1.5 2.1 1.9 3.7l.7 3-3.2-2.9c-1.7-1.7-3.1-3.3-3.1-3.8 0-1 2.1-1 3.7 0m-41 54.4c-.3.8-.6.5-.6-.6-.1-1.1.2-1.7.5-1.3.3.3.4 1.2.1 1.9m-13.3 7.6c3.1 4.5 3.6 8 .5 4.2-2.8-3.6-5.1-8-4.1-8 .5 0 2.1 1.7 3.6 3.8M853 366c0 .5.3 1.7.6 2.7.4 1.4.1 1.3-1.5-.6-2.5-2.7-2.7-4.3-.6-3.5.8.4 1.5 1 1.5 1.4"/></svg>