<svg xmlns="http://www.w3.org/2000/svg" viewBox="0 0 3199 1458"><path d="M147.5 4.1c-14.9 1.2-24.6 2.9-32 5.6-3.8 1.4-8.3 2.8-10 3.3-1.6.4-4.8 1.4-7 2.3-8.1 3.2-27.3 5.2-30.5 3.2-3.6-2.2-25.8.7-27.6 3.6-.3.5-1.2.9-2.1.9-2 0-7.2 4.1-14.4 11.3-6.1 6.2-9.6 13.8-8.4 18.4.3 1.3 2.8 6.3 5.6 11.1 8 14 8.4 19.2 1.9 26.5-5.6 6.4-14 18.1-14 19.5 0 .8-.7 2.6-1.6 4-1.4 2.5-1.4 3 0 6.4 1.5 3.5 3.1 5.2 11.1 12.3 3.2 2.8 11.7 7.5 13.5 7.5 3.9 0 26.8-11.4 38.8-19.3C87 110 106.7 100 116.5 97.6c3.9-.9 8.4-2.1 10.1-2.7 1.7-.5 4.2-.9 5.5-.9 1.4 0 3-.5 3.6-1.1.7-.7 2.9-.9 6-.5 2.6.4 10.2 1.1 16.8 1.6 6.6.4 15.2 1.5 19 2.4 3.9.8 8.4 1.8 10 2.2 1.7.4 3.5 1.1 4.2 1.6s1.7.7 2.3.3 2.5.2 4.3 1.3c1.8 1 4.5 2.2 6.1 2.6 5.2 1.3 19.4 7.8 29.6 13.7 3.6 2 8.3 4.7 10.5 5.9 10.3 5.7 13.1 7.5 15 9.1 1.1 1 4.3 2.9 7 4.3 2.8 1.5 6.1 3.5 7.5 4.5s4.5 3.1 7 4.6c2.5 1.6 5.4 3.7 6.5 4.6s3.8 2.7 6 3.9c15 8 55 45.7 91.1 86 3.2 3.6 6.3 7 6.9 7.6s2.7 3.1 4.6 5.4c1.8 2.4 5 5.9 6.9 7.9 4 4.1 14.7 16.6 20.3 23.8 6.8 8.7 20.1 26.5 22.6 30.2 2.6 4 15 21 16.6 22.7.5.6 4.2 5.3 8 10.4 3.9 5 10.2 13.1 14 17.8 3.9 4.8 8.6 11.1 10.4 14s3.9 5.6 4.5 6c.7.4 5 5.2 9.7 10.7 4.6 5.5 9.1 10.7 9.9 11.6s3.3 3.8 5.5 6.4c2.2 2.7 5.6 6.7 7.6 8.9 2 2.3 5.8 7 8.5 10.6s7.4 9 10.4 12c3 3.1 14 14.6 24.5 25.5 10.4 11 21 22 23.6 24.5 8.8 8.7 22.6 21.5 24.7 23 1.1.9 3.7 3 5.6 4.8 2 1.8 3.8 3.2 4.1 3.2s1.3.8 2.3 1.7c4.3 4.2 19.5 17.7 22 19.6 1.5 1.1 5 4.1 7.7 6.6 6.6 6 16.6 13.9 22.4 17.6 2.6 1.6 8.3 5.6 12.7 8.8 20.7 15 36.2 25.7 37.4 25.7.5 0 1.5.6 2.2 1.3 1.8 1.8 13.9 10.2 15.8 11 .8.4 6.9 4.1 13.5 8.2s13.9 8.5 16.3 9.6c2.3 1.2 4.2 2.5 4.2 2.9 0 .5 1 1.2 2.3 1.6 1.2.3 4.2 2.1 6.7 3.8 2.5 1.8 7 4.5 10 6.2 3 1.6 5.7 3.1 6 3.4s3.4 2 7 3.8c8.7 4.3 13.9 7.3 17.5 9.8 1.7 1.1 5.7 3.3 9 4.9 3.3 1.5 18.2 8.7 33 16 32.4 15.9 37.9 18.5 39.1 18.5 1.5 0 6.4 2.4 6.4 3.2 0 .3 1.3.9 3 1.3 1.6.4 3.2 1.1 3.5 1.6.4.5 1.3.9 2.1.9s4.3 1.3 7.7 2.9 7.8 3.3 9.7 3.9c1.9.5 6.7 2.4 10.7 4.1s8.3 3.1 9.7 3.1 2.7.4 3 .9 5.2 2.8 10.8 5.1c5.7 2.3 11.7 4.8 13.3 5.5 1.7.8 4.4 1.7 6 2.1 1.7.4 4.8 1.4 7 2.4 4.7 2 8.9 3.5 17 6.1 13.5 4.3 16 5.2 17 6 .5.5 2.2.9 3.7.9 1.6 0 5.6 1.1 9 2.5s6.9 2.5 7.8 2.5 3.8 1.1 6.6 2.4c2.7 1.3 6.7 3 8.9 3.6 2.2.7 5.7 2.1 7.7 3.1 5.3 2.7 20.3 15.4 21.7 18.5.8 1.9.9 4.7 0 11.2-1.6 13.1-1.8 14.9-2 25.2-.4 16.4 2.9 39 7.1 49.5 1.8 4.5 4.4 9.2 7.7 13.9 1.2 1.7 3.5 5.6 5.2 8.6 2.8 5.4 2.9 5.9 3.5 25 .3 10.7.8 23.8 1.1 29 .2 5.2.7 14.9 1 21.5.9 17.7 1.4 25 2.5 34.5 1.2 10.9 2.4 26.1 2.1 27.8-.1.7.2 3.7.8 6.5.5 2.9 1.3 9.3 1.6 14.4.3 5 1 10.5 1.5 12.1.4 1.7.6 3.3.3 3.5-.2.3.1 2.4.7 4.8 1.2 4.4 2.6 11.8 3.5 17.9 1.8 13.9 3.6 23.5 4.5 24.4.6.6-2.2 4.1-8.8 10.5-15.3 15.1-26.6 27.2-29.8 32-12.4 18.6-32.4 50.8-32.4 52.2 0 .5-1.8 2.9-4 5.3s-4 4.7-4 5.1-1.5 2.6-3.3 4.9c-1.9 2.3-4.2 5.6-5.2 7.4-1.1 1.7-2.3 3.2-2.6 3.2-.4 0-1 .8-1.3 1.7-.3 1-1.8 3.1-3.3 4.8-1.6 1.6-6.1 7.3-10 12.5-4 5.2-9.6 12.4-12.3 16-6.6 8.3-8.3 12.5-10 23.5-1.6 11.1-2.4 15.3-4.5 23-2.6 9.4-6.7 22.6-8.3 26.5-.8 1.9-1.8 4.4-2.2 5.5s-2.4 5.5-4.4 9.8-3.6 8-3.6 8.1c0 .2-1.8 3.5-4 7.2-4.4 7.5-4.9 11.4-2.2 15.6 2 3.1 6.5 6.8 8.2 6.8.7 0 2.4.9 3.9 1.9 1.5 1.1 4 2.3 5.7 2.7 1.6.4 4.7 1.6 6.9 2.7 8.4 4.2 35.6 2.3 44.7-3.2 3.3-2 4.2-2.1 7.4-1.1 3.2 1.1 3.8 1 5.7-.8 1.8-1.9 1.9-2.4.7-5.4-.8-1.8-2.4-4.9-3.6-6.9-1.5-2.3-1.9-4.1-1.3-5 .4-.8.6-3.4.4-5.9-.2-2.4.1-6.5.6-9 .6-2.5 1.3-6.5 1.6-9 .5-4.5 2.6-12.4 6.4-23.5 1.1-3.3 2.9-9.2 4-13 1-3.9 2.4-8.4 3.1-10 2.9-7.3 12.2-19.9 24.3-32.9 1.7-1.8 5-5.9 7.5-9.1 7.2-9.4 32.6-35 43.5-43.9 5.5-4.4 12.7-10.6 16-13.7 3.3-3.2 9.6-8.8 14-12.6 11.8-10.1 29.5-27.4 29.5-28.7 0-.7 1.1-2.2 2.5-3.4s2.5-2.7 2.5-3.4 1.3-4 2.9-7.3c2.8-5.9 4.8-12 5.8-18 .6-4.1 1.3-5.9 1.8-5.3.3.3 1.4 4 2.6 8.3 1.1 4.3 2.9 8.9 3.9 10.3 2.4 3 2.8 5.5 3.5 22.1.3 7.4.9 13.9 1.5 14.6.5.6.8 1.4.5 1.7-.2.2.4 5.7 1.5 12.2 1.1 6.4 2 13 2 14.6s.4 3.1.9 3.4c.9.6 1.6 3.7 2.7 11.1.3 2.2 1.2 5.9 2 8.3.8 2.3 1.4 5.8 1.4 7.7 0 1.8.4 3.6.9 3.9s1.1 1.6 1.4 2.8c.5 2.1 2.3 8.3 7.6 26.3 1.2 3.8 2.3 8 2.5 9.2.6 2.9 2.8 9.5 3.7 10.8.4.5 1.4 5.3 2.4 10.5 1.7 9.7 3.6 19.3 4.2 22 .2.8.8 5.3 1.3 10s1.2 11 1.6 14c1.1 8.2.8 51.5-.4 59-.5 3.6-1.9 8.6-3 11-1.2 2.5-2.6 7.3-3.3 10.8-1.4 7.3-1 7.8 7.7 11.1 7.9 3 31 3.7 42.8 1.3 8-1.6 10-1.7 18.5-.5 13.6 1.8 13.1 1.8 13.1-2 0-2-1.3-5.2-3.5-8.5-2.5-3.8-3.4-6.3-3.3-9 0-2-.9-9.3-2.1-16.2s-2.3-14.3-2.5-16.5-.9-7.3-1.5-11.3c-.6-4.1-.9-7.7-.6-8.2s.1-3-.5-5.7c-.6-2.6-1.3-19.2-1.5-36.8-.3-17.6-.6-37.6-.7-44.5s-.1-16.3.1-21c.1-4.7 0-13.9-.3-20.5s-1-25.5-1.5-42c-1-30.6-2.4-42-6.8-54.9-.9-2.8-1.8-6.5-2-8.1-.6-5.6-3.1-25-4.3-33.5-.6-4.7-1.8-9.5-2.6-10.8-2.1-3.2-2-3.2 22.1 4.3 4.4 1.4 8.9 2.5 10.1 2.5 1.1 0 2.4.4 3 .9.5.6 3.6 1.5 6.9 2 6.7 1.2 7.4 1.4 42.5 10.1 4.1 1 12.9 2.5 19.5 3.4 14.4 1.9 21.8 2.9 22.5 3.1.3 0 2.8.4 5.5.9 2.8.4 7.5 1.3 10.5 2.1 3 .7 13.2 1.9 22.6 2.5 9.5.6 19.8 1.6 23 2.1 19 3.1 32.8 3.6 83.4 3.3 28.3-.2 52.2-.3 53-.4.8 0 7.7.2 15.3.5s14.3.2 15-.2 5.9-.8 11.7-.9 14.6-.4 19.5-.7c9-.7 19.3-1 71.1-2.3l27.2-.7.7 13.4c.7 14.4.2 27.7-1.3 30.6s-3.5 16.8-3.5 24.1c0 3.7.1 13.3.2 21.5.1 8.1 0 15-.2 15.5-.3.4-.8 4.9-1.1 10.1-.4 5.2-.8 9.7-1.1 10-.8 1.3-2.5 24.1-3 40.1-.7 23.2-1.5 36.4-3 48.5-.3 2.7-.8 7.4-1.1 10.3-.2 2.9-1.1 7-2 9-.8 2-1.9 5.3-2.4 7.2-2.5 10.1-6.2 16.6-15.5 27.6-9.9 11.7-19.1 20.6-23.5 22.9-5.5 2.8-13 9.2-13 11 0 .7-.5 1.5-1 1.7-.6.2-1.4 2.9-1.7 6.1-.6 6.2-.2 6.7 4.5 4.3 2.6-1.4 6.7-1.9 12.5-1.7 2 .1 2.7.6 2.7 2 0 1.7.4 1.8 3.6.9 2-.5 6.7-1.3 10.5-1.7 6.3-.7 6.9-.6 6.9 1.1 0 2.6 2.7 3.3 6.8 1.8 2.6-.9 12.4-1.3 36.2-1.4 21.5-.1 33.4-.6 35.1-1.3 3.5-1.5 3.9-4.5 3.9-31.8 0-12.3.5-23.8 1.1-26 1.7-6.6 3.1-11.9 3.3-13 .1-.6.9-3.3 1.8-6 .9-2.8 2.3-7.6 3.3-10.7.9-3.2 2.1-6 2.6-6.4.5-.3.9-1.9.9-3.6s1.1-6.5 2.5-10.7c1.3-4.2 3.6-11.7 5-16.6 1.5-5 3.1-10.4 3.6-12 .5-1.7 1.7-5.9 2.8-9.5s3.3-10.5 5-15.3c1.7-4.9 3.3-10.3 3.7-12 .3-1.8 1.6-7 3-11.7 3.1-10.6 3.9-13.9 5.5-21.5.7-3.3 1.6-6.8 2.1-7.8s1-8.5 1.1-16.6l.2-14.9 5-7.4c2.7-4 5.7-8.2 6.7-9.3.9-1.1 3.5-5.5 5.6-9.7 2.2-4.2 6.5-11.4 9.5-16s6.7-10.9 8.2-14c1.4-3.2 2.8-5.8 3-5.8.6 0 2.6 3.9 3 5.9.2 1 2.1 5.5 4.2 10.2 2.2 4.6 4.6 10 5.3 11.9s1.8 4.1 2.3 4.7c2 2.7 6.4 13 7.1 16.7.4 2.1 1.6 5.5 2.7 7.5 1 2 1.9 4.1 1.9 4.7 0 3.2 8.2 20.3 12.9 26.7 2.9 4.1 7.2 11.1 9.4 15.6 17.2 33.8 22.4 43.4 26.5 49.1 2.6 3.6 7.2 10.5 10.2 15.5 3 4.9 6.1 9.8 7 10.8.8 1 2.4 3.4 3.5 5.5 3.6 6.6 7.7 13.5 13.2 22.3 2.9 4.7 5.3 9.4 5.3 10.3s.6 2.9 1.3 4.4c1.7 3.7 1.5 17.2-.6 30.2-3.2 19.7-3.7 22-6.7 26.7-1.7 2.6-3 5.5-3 6.4s-1.2 2.5-2.7 3.4c-6.2 4-11.2 12-11.3 17.8 0 2.8 0 2.9 4.3 2 4.4-.8 11.3-.9 40.7-.3 15.1.3 19 .1 28.4-1.9 12.9-2.6 17.4-4.7 23.5-11 2.5-2.5 6-5.5 7.6-6.5 1.7-1.1 3.7-2.8 4.5-3.9s3.6-4.3 6.1-7.1c5.9-6.4 8.2-11 8.3-16.1 0-3.8-1.2-7.1-8-21.1-1.3-2.8-2.4-5.6-2.4-6.2 0-.7-.4-1.2-.9-1.2-1.4 0-10-18.4-10.5-22.7-.2-1.7-.9-3.9-1.4-4.9-.6-1.1-1.6-3.8-2.3-6.2-.7-2.3-1.8-4.7-2.6-5.3-.7-.6-1.3-2.2-1.3-3.5s-.8-4.3-1.9-6.7c-1-2.3-3.3-8.9-5.1-14.7-1.7-5.8-3.6-11.3-4.1-12.2-.5-1-.9-2.4-.9-3.1s-1.1-4.6-2.4-8.7c-1.2-4.1-3.1-10.4-4.1-14-.9-3.6-2.1-7.4-2.5-8.5s-2-6.1-3.5-11c-1.4-5-2.9-9.7-3.2-10.5s-.8-2.6-1-4c-.5-3.6-3.2-11.8-5.8-17.5-1.3-2.8-2.8-6.8-3.5-9s-3.4-6.9-6-10.5c-2.5-3.6-6.8-9.8-9.4-13.8l-4.8-7.2-.8-15.3c-1.4-22.5-1.5-21 1.8-20.3 12.1 2.6 134.7 17.9 156.2 19.5 8 .5 43.6 1.8 79.2 2.7 61 1.6 68.8 1.6 137.7 0 40.2-.9 73.5-1.5 74-1.2s9.1.1 19.2-.5c15.7-.9 79.7-1.2 168.4-.9 28 0 108-1 116.5-1.5 13.1-.9 34-1.5 56.5-1.5 12.7-.1 27.7-.5 33.5-1s20.5-1.2 32.7-1.6c23.6-.6 29.1-.9 47.3-2.3 11.6-1 34-2.6 50.5-3.7 5-.3 11.9-1 15.5-1.5s13.2-1.3 21.4-1.9 15.7-1.5 16.7-2c1-.6 4.6-1 8.1-1s11.3-.9 17.4-2.1c6-1.1 13.4-2.4 16.4-2.9 15.8-2.6 23.9-4.4 30.3-6.9 1.6-.6 4-1.1 5.5-1.1s4.3-1.3 6.2-2.8c1.9-1.6 4.5-3.4 5.8-4.1 8.9-4.7-8.9-6.5-79.8-8.2-26.7-.6-89.3-3.4-156.5-6.9l-112-6-164-18.9-164-19-39.5-8.6c-33.2-7.3-48.4-11.3-95.5-25-51.9-15.2-59.4-17.7-100.5-33.3-41.7-15.8-46.7-18-79.5-34.5-30.5-15.3-38.7-20-64-36.3-15.9-10.3-42.5-28.5-59-40.5-16.5-11.9-46.4-33.2-66.5-47.3s-42.3-30.2-49.5-35.9c-12.5-9.8-15.2-11.8-18.5-13.3-.8-.4-2.6-1.7-4-2.9s-5-3.7-8-5.5c-3-1.9-7.7-5.2-10.5-7.5-5.5-4.4-7.9-6-11-7.4-1.2-.5-2.7-1.6-3.4-2.5s-1.9-1.6-2.6-1.6c-.8 0-1.5-.4-1.7-.8-.4-1-12.5-8.2-13.9-8.2-.5 0-.9-.4-.9-.9s-1.5-1.6-3.2-2.5c-1.8-.9-4.9-2.6-6.8-3.8-1.9-1.1-6.4-3.6-10-5.6-3.6-1.9-7.2-4-8-4.7s-5.8-3.3-11-5.9-11.1-5.7-13-6.8c-1.9-1.2-7-3.9-11.3-6.2s-9.3-4.9-11-5.8c-1.8-.9-3.9-1.7-4.8-1.8-.9 0-2.2-.6-2.8-1.4-.6-.7-4.2-2.7-8-4.5-3.8-1.7-7.5-3.8-8.1-4.6-.7-.8-1.6-1.5-2.1-1.5s-1.8-.8-2.8-1.7c-1.1-.9-5.6-2.9-9.9-4.4-4.4-1.4-9.3-3.4-10.8-4.2-4.8-2.6-18.4-8.7-21-9.3-1.3-.3-2.4-1-2.4-1.5s-.8-.9-1.8-.9-2.2-.4-2.7-.8c-.6-.5-3.2-1.7-6-2.7-2.7-1-6.6-2.8-8.5-4-5.3-3.2-13.9-7.2-19.4-9-2.6-.8-6.8-2.4-9.2-3.5s-6.5-2.9-9.1-4.1c-11.5-5-13.9-6.1-15.5-7-1-.5-2.3-.9-3-.9-1.4 0-18.6-6.7-27.5-10.7-2.8-1.3-5.6-2.3-6.1-2.3-.6 0-2.7-.8-4.9-1.9-3.8-1.9-14.1-5.5-26.3-9.4-3.6-1.1-7.1-2.6-7.7-3.3-1.3-1.3-3.3-2-14.3-4.9-3.6-.9-7.6-2.1-9-2.5-13.8-4.5-36.1-9.9-52-12.5-5.2-.9-11.7-2-14.5-2.5-2.7-.5-9.9-1.6-16-2.5-6-.8-14.1-2-18-2.7-4.9-.7-34.6-1-97.5-1-105 .2-142.4-.8-184.5-4.8-4.9-.5-13.9-1.3-20-1.9-13.9-1.2-27-2.9-31.5-4.1-11.1-2.9-25.4-6-27.9-6-1.6 0-3.3-.5-3.6-1-.3-.6-1.7-1-3-1s-4.4-.6-6.7-1.4c-11.5-3.6-19.1-5.8-23.5-6.6-7.9-1.5-26.9-6.3-30.3-7.7-.8-.3-1.9-.7-2.5-.9-14.1-4.1-19.6-5.8-22.5-6.9-1.9-.7-5.5-1.8-8-2.5s-5.4-1.6-6.5-2-4.2-1.6-7-2.5c-2.7-.9-6.8-2.5-9-3.5s-8.3-3.2-13.5-4.9c-5.2-1.8-12.9-4.8-17-6.8-16-7.5-17.9-8.3-19.4-8.3-1.8 0-38-17.6-44.1-21.4-2.2-1.4-6.1-3.7-8.7-5.2-2.7-1.5-4.8-3.1-4.8-3.6s-2.4-2-5.2-3.3c-5.4-2.5-8.2-4-20.3-11.2-8.1-4.7-12.8-7.4-20.5-11.6-3-1.6-5.7-3.2-6-3.6-.3-.3-2.7-1.7-5.4-3.1-2.7-1.3-5.4-2.9-6-3.5-1.1-1-20.2-14.1-23.4-16-5.3-3.2-25.2-17.3-27.7-19.8-1.6-1.6-8.2-6.7-14.5-11.3s-14.4-10.9-18-13.9-9.2-7.6-12.5-10.2c-8.4-6.5-19.1-16.3-37.5-34.3-8.7-8.5-18.1-17.6-20.7-20.1s-10.4-10.6-17.3-18c-6.9-7.3-16.1-17-20.5-21.4-4.5-4.4-14.9-15-23.1-23.5-21.6-22.1-47.1-46.8-63.8-61.5-4.4-3.9-10.8-9.7-14.4-13-3.5-3.3-7.4-6.7-8.7-7.5-2.5-1.7-7.7-6-16.2-13.6-3.2-2.9-8-6.9-10.8-8.9-2.7-2.1-5.2-4.1-5.5-4.4-.3-.4-3.6-3.1-7.5-6.1-9.1-7-7.4-5.7-19.7-15.5-13-10.2-31.9-24.4-40.8-30.3-3.6-2.5-8.5-6.1-11-8.1-3.9-3.2-7.6-5.8-18-12.7-1.4-1-6.9-4.7-12.3-8.3-19-12.7-27.7-18.1-36.9-23-5.1-2.7-12.2-6.4-15.8-8.4-3.6-1.9-9.9-4.7-14-6.2s-9.4-3.6-11.7-4.6c-2.4-1.1-4.9-1.9-5.6-1.9s-2.1-.6-3.2-1.3-4-1.9-6.5-2.6-5.8-1.9-7.5-2.6c-1.6-.7-5-1.8-7.5-2.6-2.5-.7-5.6-1.9-7-2.6s-4.2-1.3-6.2-1.3-3.9-.4-4.2-.9-2-1.1-3.8-1.4-4.2-.7-5.3-1c-9-2.4-28.9-6.2-38-7.2C197 7.1 188.8 6 182 5c-9-1.3-23.8-1.7-34.5-.9m1963.3 526.6c.6.2 1.8.2 2.5 0 .6-.3.1-.5-1.3-.5s-1.9.2-1.2.5"/></svg>