<svg xmlns="http://www.w3.org/2000/svg" viewBox="0 0 1536 670"><path d="M663.7 3.2c-6 8.1-23.5 43.2-33 66.3C621.8 90.9 618.2 98 616 98c-.4 0-1.1-1.9-1.5-4.1-.4-2.3-1.9-6.6-3.3-9.7l-2.5-5.5.7-20.6c.3-11.3 1.1-23.8 1.6-27.6 2-13.9 2.3-19.5 1.2-19.5-1.4 0-14.5 39.6-18.1 55-1.6 6.9-4.2 19-5.6 27-2.8 15.8-3.5 18.4-4.1 17.7-1-1-12.3-38.8-13.8-46-2.1-10.2-2-22 .3-35.8 2.9-16.9 3.3-21.5 2.6-24.9-.6-2.9-.8-3-1.9-1.3-2 2.8-8.2 18-11 26.7-1.4 4.3-4.8 17.5-7.6 29.2-5.4 23-6.4 26.4-7.9 26.4-4 0-9.4-25.3-10.6-50-.7-12.8-1.2-16-2.4-16-2.9 0-9.7 29.8-13.1 58-.6 4.7-1.3 19.5-1.6 33-.7 32.4-1.1 35-4.7 27.5-.9-2-5.3-9.1-9.7-15.9s-8.9-14.9-10.1-18.2c-1.1-3.2-3.8-16.5-6-29.4-4.3-25.5-5.5-31-6.8-31-2.6 0-9 23.8-11.8 43.3-1 7.2-2.1 11.6-2.7 11.4s-1.9-1.8-2.9-3.5c-1.5-2.6-2.1-6.5-2.7-19.7-.5-9.1-1.2-17-1.5-17.5-2-3.2-5.4 5.8-7.4 19.5-3.1 21.2-3.8 65-1.5 100.5.7 11.5.1 11.3-7.7-3-6.4-11.8-11.6-19.1-21.3-30-9.7-10.8-12.2-15.7-19.1-36.8-5.7-17.3-8.9-23.7-10.6-21-1.2 1.9-1.1 31.2.2 44.3 1.1 11.3.4 17.5-1.9 18.3-1.9.6-5.7-8.8-10.2-25.2-7.4-26.9-9-28.1-9-6.9.1 8.2.5 17.7 1 21.3 2.4 17.7 6.6 37.7 10.6 50.4 2.4 7.8 4.7 15.8 5.1 17.8.9 5.8-1.8 4.9-7.1-2.5-4.5-6.3-12.6-14.4-27-27.1-8.3-7.4-15.2-16-23.5-29.6-7.4-12.1-8-12.8-9.2-11-1.3 1.9-.5 12.8 2.2 28.1 3.3 19.6 1.5 19.8-8.6.9-3.8-7.3-7.6-13.5-8.3-13.8-3-1-.1 27 5.3 51.2 4 17.6 8.6 30.1 18.7 50.4 5 10 8.8 18.5 8.5 18.8-1.6 1.7-29.3-26-42.4-42.3-8.8-11.1-10.9-12.5-12.3-8.8-.6 1.5-1 6.3-1 10.8 0 9.2-.7 12.7-2.4 12.7-.6 0-1.7-.9-2.4-2s-1.7-2-2.4-2c-1.7 0-.4 19 2 28.5 3.3 13.4 3.4 13.5 1.9 13.5-.7 0-5.5-3.8-10.6-8.5s-9.7-8.5-10.1-8.5c-1.2 0-2 2.8-2 7.4 0 5.4-2.1 8.6-4.4 6.7-1.4-1.2-1.5-.6-.9 5.4.8 9.2-.8 8.4-6.9-3-5.4-10-7-12.1-8.8-11-.9.6-1.1 2.9-.7 8.1.3 4.1.2 7.6-.3 7.9-.4.3-2-.9-3.4-2.6-1.5-1.7-3-2.8-3.4-2.4-1.2 1.2-1.4 20.4-.2 27.2 1.9 11-1.2 10.8-9-.7-7.6-11.1-10.3-11.6-11.4-2.1-.4 3.3-1.1 6.3-1.6 6.6-.4.3-2.2-.6-3.8-2l-2.9-2.5-.7 4c-.8 4.9-2.5 6-4.5 3.1-5.6-7.9-9.1-10-9.1-5.2 0 2.5-3.6 6.8-7.1 8.7-2.6 1.3-3 1.3-3.5 0-1.4-3.7-6-2.5-10.5 2.8-2.3 2.6-2.9 2.9-4.2 1.7-2.6-2.1-5.7-.3-7.7 4.5-2.8 6.5-7 5.5-7-1.7 0-7.5-1.8-8.6-7-4.2-2.7 2.2-3.5 2.5-5.1 1.5-3.1-2-4.6-1.4-11.1 4.4-10.2 9.2-10.9 9.3-23 5.6-13.3-4.1-23.4-5.6-32.3-4.7-16.9 1.6-46.8 15.1-58.7 26.5-7.4 7.1-8.3 9.6-4.7 12.9 4.1 3.8 30.7 13.1 37.6 13.1 6.1 0 30.1 9 50.5 18.9 31.4 15.2 61.9 26.1 93.1 33.2 35.3 8 38.6 8.3 78.7 8.4l36.6.1 4.9 2.4c4.7 2.4 5.3 3.1 11.3 14.7 4.2 8.1 8.5 14.6 13 19.8 17.4 19.9 16.2 17.5 24.6 52 6 24.8 6.3 26.9 7.7 67.9l1.3 34.9-3.5 3.1c-4.4 3.8-7.3 8.2-6.4 9.6.9 1.5 22 1.2 37.4-.6 7.4-.8 13.8-1.1 14.2-.7.5.5-2.5 4.4-6.7 8.6-8.9 9.2-9.5 11.9-2.8 12.8 2.3.3 4.9 1.3 5.8 2.2 2.1 2 11.7 2.3 27.7.7 13.4-1.4 21.6-3.7 23.5-6.5.9-1.4 1.8-7.3 2.4-17.1 1.3-20.5 1.2-88.5-.1-105.8-1.5-19-1.1-20.1 8.1-20 3.6 0 14.7.5 24.8 1.1 36.6 2 92.4-1.9 123.2-8.8 17.7-3.9 48.3-12.6 64.4-18.3 7.1-2.5 13-4.5 13.1-4.3.4.4 3.5 10.1 4.9 15.2.7 2.7 3.8 10.4 6.8 17 9.9 21.6 22.6 54.7 26.3 68.5 2 7.4 4.8 16.2 6.2 19.5 5 11.8 4.2 14.9-5.2 20.9-7.5 4.9-8.7 10.5-2.2 10.6 2.6 0 2.2.8-3.9 7.2-4.7 4.9-5.5 6.3-5.2 9l.3 3.3 6 .1c8.6.3 8.5.2 8.5 2.3 0 2.9 4.2 3.4 17.7 2.2 18.8-1.8 34.6-5.6 36.7-9 .4-.5.1-8.3-.5-17.1-.9-12.4-.9-23.1 0-46.1 1.3-33.2 2-42.5 5.5-70.9 1.4-10.7 2.8-23.1 3.1-27.4 1-10.9 2.8-17.7 7.6-27.4 6.3-12.9 9.5-14.7 49.4-28.6 13.8-4.8 30-11.2 36-14.1 19-9.2 42.6-15.5 58.5-15.5 13.6 0 46.4 2.7 60.5 5 44.7 7.2 121.9 27.4 154 40.3 6.1 2.4 13.4 4.9 16.3 5.6 8 1.7 73.2 22.1 77.2 24.1 1.9 1 6.9 2.7 11 3.9 15.4 4.3 41.6 15.9 60 26.6 6.9 4 16.1 9.1 20.5 11.3s12.1 6.6 17 9.9c5 3.2 11.5 7.3 14.6 9 3 1.7 18.6 11.6 34.5 22 34.7 22.7 36.3 23.7 37.1 23 1.3-1.3-1.1-5.7-7.6-14.4l-7-9.2 4.2-.5c2.3-.3 12.3-.8 22.2-1.1 25.1-.9 46.6-2.9 62.9-5.9 14.1-2.7 15.6-3.1 15.6-4.6s-3.6-2.2-21-3.6c-9.6-.8-27.4-2.8-39.5-4.4-12.1-1.7-30.1-3.9-40-5-20.4-2.2-27.9-3.6-29.4-5.4-1.3-1.5.5-12.3 3.9-24.1 2.4-8.4 2.4-8.5.5-8.5-2.1 0-9.5 7-15.6 14.7-3.2 3.9-5.8 6.3-7.1 6.3-3.6 0-23.4-15.2-22.2-17.1.8-1.4 18.4-6.5 35.9-10.4 27.8-6.3 35.3-8.4 63.5-17.9 35.9-12.2 59-21.8 59-24.7 0-1.4-4.7-.6-26 4.6-24.3 6-31 7.2-54.8 9.5-11.4 1.1-27.4 2.8-35.7 3.9-24.7 3.2-27.5 3.4-27.5 2.1 0-1.5 6.2-11.1 21-32.5 13.6-19.7 18.8-28.5 16.8-28.5-.7 0-4.8 3.1-9 6.8-25.8 22.6-32.1 27.8-48.7 40.3-21.8 16.3-27.1 19.5-30.1 17.9-2.8-1.5-2.5-3.7.9-5.4 3.7-1.9 17.6-16.9 16.1-17.4-.6-.2-6.8.6-13.8 1.8s-13.4 2.2-14.2 2.3c-1 .1-1.5-.7-1.5-2.8 0-3.9-2.4-4.3-9.4-1.5-5.3 2.1-9.1 2.6-9.1 1.2 0-1.5 3.4-5.8 10.2-12.8 3.7-4 6.8-7.7 6.8-8.3 0-1.8-5.4-1.3-13.7 1.4-4.3 1.4-8.9 2.5-10.1 2.5-2.2 0-2.3-.3-1.7-4 .4-2.5.3-4-.3-4s-4.3 1.6-8.3 3.5c-8.1 3.8-11.6 4.4-12.6 1.9-.7-2 .6-3 16.1-12.8 6-3.8 13-9 15.5-11.5l4.6-4.6-3.8-.3c-2.2-.2-8.7.8-14.6 2.2s-11.3 2.6-11.9 2.6c-2 0-1.4-2.3 1.8-7.3 1.6-2.6 2.7-4.7 2.5-4.7-1.2 0-16.6 8.1-24.5 12.9-8.9 5.3-11.4 6-14.4 3.8-3.9-2.8-1.6-5 14.7-13.3 16.4-8.5 27.2-15.1 30.2-18.4 1.8-1.9 1.7-2-1.1-2-1.6 0-10.7 1.6-20.2 3.7-20.7 4.4-22.3 4-14.1-3.6 3.6-3.4 4.8-5.1 3.7-5.1-.9 0-7.9 3-15.5 6.6-20.8 10-28.2 12.1-33.4 9.4-4.7-2.6-4.2-2.8 47-23.7 35.6-14.5 43.1-17.8 43.1-19 0-1.3-13 .8-45 7.5-39.4 8.2-43 8.7-43 6.7 0-.8 4.3-4.8 9.5-8.9 5.2-4.2 12.2-10.3 15.7-13.5 10-9.6 7-8.7-30.3 8.7-33.5 15.6-41.7 18.3-39.6 13 .6-1.7 16.9-9.1 47.4-21.8 26.9-11.2 48.8-22 53.9-26.5 2.5-2.2 3.4-3.5 2.4-3.6-5.1-.4-11.9.7-22.4 3.7-6.6 1.9-16.3 4.6-21.6 5.9-8.8 2.2-30.4 9.1-40.5 12.8-5.4 2-17.5 3.3-17.5 1.8 0-2.2 37.7-32.1 49.3-39 3.4-2.1 4.8-4.1 2.9-4.1-1.5 0-36.6 17.7-51.5 25.9-8.1 4.5-21 12-28.8 16.6-7.7 4.7-14.4 8.5-14.9 8.5-1.2 0-15-8.3-15-9 0-1 32.1-19.7 39-22.8 8.8-3.9 26.2-14.6 52.5-32.3 22.9-15.4 29.4-20.3 28.4-21.3-.8-.9-10.8 3.5-38.3 16.6-12.6 6-28.2 13.2-34.5 16-6.4 2.8-16.5 7.3-22.6 10-12.6 5.7-17.3 7.4-18.1 6.6-1.4-1.5 3.9-8.3 16-20.6 13.9-14.2 38.6-37.2 47.4-44.2 2.8-2.3 5.2-4.6 5.2-5.2 0-2.4-38.2 21.9-57.6 36.6-7.3 5.6-20.6 15.7-29.5 22.5-22.6 17.2-28.3 19.5-33.8 13.7l-2.1-2.3 2.9-4c2.6-3.6 39.8-38.8 64.1-60.5 13.6-12.2 40.3-34.3 54.2-44.9 14.5-11.1 16.7-14.2 7.8-11.2-10 3.3-21.3 9.5-33.6 18.2-7.1 5.1-15.3 10.7-18.2 12.4-2.9 1.8-8.1 5.4-11.5 8.1-8.2 6.3-21.8 14.3-36.9 21.6-13.6 6.4-16.8 7.6-16.8 6.1 0-2 34.9-45.2 56.3-69.5 13.6-15.5 10.5-15.3-6.5.5-5.7 5.2-19.7 17.7-31.3 27.6-11.5 9.9-32.2 28-46 40.3-35.4 31.5-37.1 32.7-41.8 28.9-5.4-4.2-4.1-6.3 25.5-39.6 20.3-22.8 27.8-31.8 41-49.4 5.2-7 15.5-20 22.9-28.9 18.3-22 26.4-34 23.1-34-1.8 0-19.2 14.1-27 21.9-8.2 8.2-44.6 40-67.7 59.1-9.9 8.1-16.5 12.8-16.5 11.5 0-2.6 16.1-29.7 42-70.5 12.9-20.3 15.4-24.9 14.5-25.8-.3-.3-5.1 3.9-10.6 9.4-9 8.8-15.8 16.5-41.7 47.3-4 4.7-11.1 14.2-15.8 21.1-21 31.1-36.9 52.5-39.7 53.4-4.3 1.5-8.2-.3-8-3.8.5-7.3 43.3-75.1 73.9-117.1 19-26 25.9-36.3 25.1-37.1-3.1-3.1-34.5 28.8-59.4 60.3-6.1 7.7-9.5 10.4-11.1 8.9-1-1.1 1.4-4.6 33.6-48.3 5.3-7.2 10.5-14.6 11.6-16.3 1.8-3.1 1.8-3.2-.1-2.1-3.4 1.8-17 14.9-31.7 30.6-7.8 8.3-27.6 31.7-44.1 52-16.5 20.4-33.5 41-37.9 45.8-6.8 7.7-8.2 8.8-10.3 8.2-4.5-1.1-7.3-3.6-7.3-6.4 0-8.2 29.1-56.5 64.5-107.1 12.8-18.3 16.2-24 14.5-24-.5 0-10.1 8.9-21.2 19.8-25 24.3-38.8 37.2-39.9 37.2-3.1 0 2.3-16.2 12.1-36.5 3.7-7.7 7.1-15.1 7.5-16.5l.7-2.5-2.5 2.5c-1.3 1.4-15.5 20-31.4 41.5-15.9 21.4-34 45.9-40.3 54.3l-11.5 15.4-3.7-.5c-2-.3-6.2-1.7-9.4-3.1-5.6-2.6-5.7-2.7-5.1-6.1 1.2-7.5 29.5-62.1 49.7-96 3.9-6.6 10.3-18.2 14.1-25.8 9.6-19.1 9.3-21-1.4-10-3.6 3.8-11.4 12.4-17.3 19.3-15.9 18.3-49.9 55.4-53.1 58-2.8 2.2-2.8 2.2-3.1.1-.6-3.6 3.8-16.9 14.3-44.1C831 87 837 70.3 837 68.4c0-.2-.4-.4-1-.4-.5 0-1.6 1.5-2.3 3.2-.8 1.8-5.2 9.1-9.9 16.3-10.8 16.5-31.5 51-35.6 59.5-3.8 7.7-15.9 24.3-17.1 23.6-2.8-1.7 6.8-32.3 18.1-58.1C801.6 84.3 806.1 72 804.1 72c-1.4 0-8.4 8.3-16.4 19.4-8.1 11.5-29.8 44-33.9 51-2.8 4.8-4.8 5.9-4.8 2.8 0-5.2 12.1-48 17.7-63 .3-.7-.3-1.2-1.6-1.2-1.4 0-2.3.8-2.7 2.7-.4 1.6-2.7 6.1-5.3 10.2-2.5 4.1-9.8 17.8-16.1 30.5-6.3 12.6-12.1 23.2-12.7 23.4-4.1 1.2 1.6-15.1 21.2-61.3 7.5-17.6 14.1-33.9 14.6-36.2 1.5-7.3.2-7.8-4.4-1.8-14.9 19.5-23 29.6-25.2 31.3-1.4 1.1-4.6 5.7-7.1 10.3s-7.4 11.9-10.9 16.4c-3.4 4.4-7.7 10.8-9.4 14.2-1.9 3.9-3.8 6.3-4.8 6.3-1.4 0-1.5-.9-.9-6.9.7-8.1 7.8-37 13.6-55.4 2.2-7.1 4-13.4 4-13.9 0-1.3-5.4 5.8-10.3 13.4-12.6 19.9-28 55.2-37.4 86-.8 2.6-2.3 2.2-2.3-.5 0-3.5-3.4-15.9-10-36.2-7.2-22.5-8.5-28.5-7.7-37.8.9-10.4 8-44 12.7-59.7 2.2-7.4 4-14 4-14.7 0-2.2-1.8-1.4-4.3 1.9"/></svg>