<svg xmlns="http://www.w3.org/2000/svg" viewBox="0 0 1536 762"><path d="M260.1 3.1c-6.2 1.6-11.8 3.2-12.3 3.5-.6.4-5.5 1-10.8 1.4-9.3.6-10.1.9-16.1 4.8-10.5 6.7-12.7 7.4-23.7 6.7-12.8-.8-14.5.1-19 11.3-4 9.7-6.2 11.5-12.6 10-2.3-.5-6.2-.8-8.8-.5-4.3.4-5.5 1.1-13.1 8.3-6.6 6.2-10.6 9-18.8 13.1-10.9 5.4-31.2 12-53.2 17.2-17.5 4.2-24.8 8.1-51 27.4C5.2 117.7 2.9 121.7.8 139.9c-1 9-.9 12.6.6 24.1.9 7.4 2.3 14.1 3 15 .7.8 1.8 4 2.5 7 2.9 13.4 10.3 19.6 37.7 31.5l8.2 3.5H78c22 0 26.2.3 33.1 2 9.6 2.5 23.7 7.6 33.9 12.3 13.3 6.1 36.7 14.7 74 27.2 42 14.1 48.8 16.7 62.5 23.8 8.3 4.3 11.6 6.8 20 15.2l10.2 10L326 340c14.7 29.4 25 46.4 39.3 65 11.3 14.7 18.4 22.5 26.7 29.5 10.9 9.1 14.9 15.2 19.9 29.6 5.9 17.2 13.9 33.3 19.7 39.8 5.6 6.3 8.6 7.7 12.6 6 3.4-1.4 3.6-3.6.4-4.9-3-1.1-4.1-3.1-5-8.9l-.7-4.4 6.8 7.1c5.8 6.1 7.3 7.2 10.1 7.2 4 0 6.8-1.4 8.2-4.1 1-1.7.7-2.1-2.4-3.4-2.9-1.3-3.6-2.1-3.6-4.4 0-3.2-3.6-7.4-9-10.1-1.9-1-5.4-3.5-7.7-5.5-3.5-3-4.7-4.9-6.4-10.6-1.2-3.9-1.9-7.2-1.6-7.5s8 2.4 17.2 6c9.1 3.7 24.2 9 33.5 11.9l17 5.2v4.1c0 4.6 4.2 15.6 8.5 22.4 3.3 5.2 13.7 19.2 28 37.5 14.4 18.4 18.1 24.3 21 33.1 3.4 10.4 3.3 16.1-.5 23.8-3.1 6.4-5.4 14.3-7 23.9-1.2 7.7-7.4 24.4-11.3 30.5-4.3 6.7-20.3 24.6-29.2 32.6-4.4 4-8.1 8.3-9.3 11-1.2 2.4-3.6 5.6-5.5 7-7.7 5.9-24.2 11.6-33.4 11.6-9.1 0-24.9 5.5-33 11.6-6.6 4.9-13.7 22.6-9.7 24.1.6.2 2.8-1 4.9-2.7 6-4.8 8.1-4.9 11.9-.6 2.7 2.9 4.1 3.6 7 3.6 3 0 3.7.4 4.2 2.5.8 3.2 1.3 3.1 5.9-.5 4.3-3.4 7.8-3.8 13-1.3 3.2 1.5 4.5 1.6 13.8.4 5.6-.7 14.4-1.7 19.6-2.2l9.5-.9 2.7 3.3 2.7 3.2 3.9-3.8c3.8-3.6 4-3.7 11.6-3.7s14.8-.8 30.5-3.6c10-1.7 20.4-6.2 22.7-9.7 1.1-1.8 2-7.2 3-18.4 1.3-15.2 3.9-29.3 5.5-29.3.4 0 1 1.4 1.4 3 .6 3 2.1 4.8 9 10.3l3.4 2.7 2.1-2.6c2.6-3.3 2.7-8.9.5-20.5-2.6-13.5-1.6-20.5 4.7-31.9 5.6-10.4 11.6-19.7 16-24.8 3.8-4.3 4.4-6.9 4.4-18.2-.1-8.3-.4-10.3-2.9-15.5-5.6-12-10.6-24.8-11.7-30.4-.8-4.2-.8-9.1 0-18.5.6-7 1.1-17.9 1.1-24.3v-11.6l4.3.7c15.7 2.3 27.2 2.8 49.7 2.2 13.5-.3 27.2-1 30.5-1.5 4.6-.7 11.4-3.5 27-11.3 11.6-5.7 22.6-11.3 24.7-12.6l3.6-2.2 11.5 10.8c18.9 18 31.5 25.2 56.8 32.7 23.5 6.9 30.7 11.9 38.2 26.3 2.5 4.9 3.7 8.6 4.2 13.7.4 3.8 1.2 9.8 2 13.2 2.1 10.3-1.9 37.1-9.1 61.2-5.5 17.9-10.1 25.5-21 34.2-6 4.8-10 9.9-8.8 11.2.3.3 2.2.3 4.1 0l3.6-.6-3 4.4c-5.4 7.8-6.6 10.9-6 15.5.5 5-.2 5.9-10.5 12.4-9 5.6-14.2 11.6-16.8 19.6-2.7 7.9-2.1 10.7 2.2 12.4 1.8.7 4.3 2.2 5.5 3.3 1.9 1.7 2.7 1.8 4.5.9 1.3-.6 6.4-1.2 11.3-1.4 7.3-.2 9.6-.7 11.9-2.4l2.9-2.1 4.2 2.9c5.9 4.1 20.8 6.1 33.5 4.4 7.6-1.1 9.4-1.7 12.5-4.4 1.9-1.8 4.2-3.2 5-3.2.9 0 3.4 1.3 5.7 3 3.8 2.8 4.7 3 13.1 3 6.9 0 9.2.4 10.1 1.5 1 1.4 1.5 1.3 4.4-.8 2-1.5 5.3-2.7 8.8-3.1 10.6-1.2 14-5.1 13.7-15.7-.1-6.9-.9-8.4-8.9-17.6-3.5-4-6.4-8-6.4-9 0-.9.5-4.4 1.1-7.8.9-5.1.7-8.8-1-20.7-2.9-20.6-3.5-38.3-2.2-60.8 1.7-26.7 2.4-31.6 6-41 2.6-6.6 3.2-9.8 3.3-15.9 0-13.2-2.1-18.4-13.8-33.1-3.8-4.8-8.8-12.8-11.5-18.5-6-12.4-7.5-20.6-8.4-46.5-.4-14.2-1.1-20.1-2.6-25.3-1.1-3.7-1.7-7.2-1.3-7.8 1.7-2.8 33.5-16.3 72.4-30.9 29.7-11.1 38.2-14.6 52.5-21.5 6.1-3 15.3-7.2 20.5-9.4s15.1-6.5 22-9.6c19-8.6 42.2-18.2 54.5-22.5 6.1-2.1 18-6.4 26.5-9.5 50.5-18.4 75-24.8 111-29 58.7-6.8 102.3-7.1 144.5-.9 21 3.1 67.2 14.5 89 22 8.8 3 19.5 6.7 23.8 8.2 7.1 2.4 7.8 2.5 9.3 1 2.7-2.6 1-6-6.4-12.9-7.6-7.2-26.8-19-43.7-27-41.9-19.8-124.2-38.9-195.7-45.5-23.8-2.2-78.6-2.4-115.8-.4-15.1.8-43 1.5-62 1.5-42.5 0-55.8-1.3-117.3-11.1-20.7-3.3-60.2-15.6-94.6-29.6-18.1-7.3-25.7-11.3-43.1-22.7-16-10.5-31.1-18.7-39.1-21.4-2.5-.9-9.5-2.3-15.5-3.2-6-.8-19.9-3.3-30.9-5.5-64-12.6-133.4-18.8-195.5-17.6-20.9.4-31.8 1-37.5 2.1-5.4 1.1-16.4 1.8-33.6 2.2-30 .6-31.6.3-47.4-8.4-23.3-12.9-39-29.9-63-68.3-10-16-18.5-25.3-32.3-35.5-20.8-15.4-37.9-22.5-64.7-27-18.5-3.2-22.4-3.1-36.4.6"/></svg>