<svg xmlns="http://www.w3.org/2000/svg" width="420" height="573.333" viewBox="0 0 315 430"><path d="M130.8 3.1c-.9 1.9-2.6 6.8-3.9 10.9-1.2 4.1-3.6 10.6-5.2 14.5-5.5 13-8 28-6.4 38.8.9 6.4.8 7.1-1.9 13-2.5 5.3-2.9 7.4-2.9 14.7s.7 10.8 4.7 24c7.4 24.4 8.6 30.2 13.3 68 4.5 35.1 5.2 44 3.8 44-1 0-3.6-3.9-10.2-15-5.5-9.3-10.4-15-19.6-22.7-4.5-3.9-7.9-8.2-14-18-12.7-20.6-21.9-28.7-33.7-29.9-5.9-.6-14-3.5-20.8-7.3-10.9-6.1-16.4-12.5-20.3-23.3-2.6-7.4-5-8.7-6.6-3.6-1.9 6.3-6.1 28.1-6.7 35.2-.7 7.7 1.6 22.8 4.2 27.8 1.6 3 8.4 8.7 15.8 13L25 190v7c0 10.4 3.5 15.9 17 26.6 1.9 1.5 5.9 5 8.8 7.8 2.8 2.8 5.2 4.6 5.2 4.2 0-.5 7.4 13.7 16.4 31.5 24.9 49.5 47.8 92.8 52.6 99.8 5.7 8.5 20 25 29.3 33.7 13.9 13.3 28.4 22.9 40.7 27 10.9 3.7 40.7 1.4 52.5-4 6.7-3.1 15.4-11 18.3-16.9 4.4-8.8 5.6-16.2 5.5-32.2-.3-19.9-2.6-47.7-5.7-66.1-3.9-23.6-3.9-23.5-1.2-42.4 1.4-9.6 3-22.5 3.6-28.5 3.2-31.7 6.5-44.8 14.7-58.1 9.4-15.4 9.8-16.3 9.8-24.9 0-5.6-.5-8.9-1.7-11.1-1.7-3.2-1.7-3.2 2.8-11 2.4-4.4 5.1-10.1 5.9-12.8 4.5-15-1.5-34.9-14.9-49.2-3.5-3.8-6.7-6.6-7.1-6.2s-1.1 4.3-1.5 8.7c-1.5 14.2-8.7 24.1-26 36-9.1 6.3-11.8 9.9-13.9 18.5-.7 2.6-2.5 7.4-4 10.5-6.5 13-18.9 49-24.6 71.6l-2.2 9-1.5-3.5c-2.3-5.4-4.6-16-7.3-33.6-1.4-8.9-3.1-17.9-3.9-20.2-2.9-8-5.6-23.2-7.1-39.8-2.6-26.9-6.6-40.1-14.8-48.8-5.1-5.4-5.2-5.6-4.3-9.6 2.1-9.7-3.3-24.1-13.3-35.1-3.2-3.6-8-9.9-10.5-14-2.5-4-5.9-8.9-7.4-10.8l-2.9-3.4z"/></svg>